<svg width="188" height="270" viewBox="0 0 188 270" fill="none" xmlns="http://www.w3.org/2000/svg">
<path d="M3.83413 265.463C3.83413 265.463 -4.21396 268.231 17.8193 269.153C39.8526 270.076 156.352 270.471 168.226 269.153C180.232 267.835 203.585 268.626 172.58 265.463C141.575 262.299 109.778 264.277 78.6416 262.299C47.5048 260.322 8.45188 262.299 3.83413 265.463Z" fill="#1B1C1E"/>
<path d="M155.296 173.199C155.296 173.199 165.06 170.695 165.587 159.887C165.587 159.887 175.878 165.291 176.274 179.394C176.67 193.497 165.719 199.56 165.719 199.56C165.719 199.56 150.81 190.202 155.296 173.199Z" fill="#FBAF5E"/>
<g opacity="0.62">
<path d="M163.476 187.697C163.608 187.697 163.74 187.697 163.872 187.697C163.872 187.566 163.872 187.566 163.476 187.697Z" fill="#3E240C"/>
<path d="M162.025 182.294L161.629 182.558C161.761 182.426 161.893 182.426 162.025 182.294Z" fill="#3E240C"/>
<path d="M168.622 185.852C168.754 185.852 168.754 185.721 168.886 185.721C168.754 185.852 168.754 185.852 168.622 185.852Z" fill="#3E240C"/>
<path d="M160.574 180.581C160.442 180.581 160.442 180.581 160.31 180.581C160.31 180.711 160.442 180.711 160.574 180.581Z" fill="#3E240C"/>
<path d="M164.136 191.125C165.587 190.861 164.268 191.257 165.719 191.125C165.323 190.993 165.191 190.993 165.851 190.861C166.643 190.861 165.851 191.125 167.039 190.993L166.511 190.861C167.17 190.729 168.094 190.729 167.962 190.598C166.247 190.729 168.49 189.939 168.226 189.807H168.358L169.15 189.411C169.15 189.411 169.15 189.411 169.281 189.411C169.15 189.411 169.15 189.411 169.018 189.411C169.809 189.148 170.337 188.884 170.073 188.621C169.15 188.752 169.545 187.962 168.754 188.093C169.018 188.093 169.018 188.225 168.886 188.357L167.698 188.621C167.698 188.357 168.754 188.357 167.962 188.357C166.379 188.752 167.962 188.621 167.83 188.752C167.434 188.752 167.171 188.752 166.907 188.752C166.907 189.016 166.379 189.411 168.094 189.28C167.83 189.411 167.171 189.543 166.907 189.411C167.83 189.411 166.115 189.675 166.907 189.675C165.455 189.807 166.115 189.411 165.191 189.411C166.247 188.884 165.191 188.884 164.796 188.621C165.851 188.357 166.775 188.357 167.434 188.093C168.094 187.698 166.775 187.962 166.115 187.962C166.379 187.698 167.83 187.434 167.83 187.171H168.622C170.073 186.512 167.962 187.171 168.226 186.907C167.83 187.039 167.434 187.171 167.566 187.303C167.039 187.434 166.775 187.434 166.643 187.303C165.851 187.434 165.191 187.698 165.455 187.303C166.379 187.171 166.115 186.907 166.511 186.775H166.775C166.379 186.775 166.511 186.512 166.379 186.512H166.643C166.247 186.512 165.191 186.775 165.323 186.644C165.719 186.512 167.039 186.248 166.775 186.248C167.434 186.116 167.566 186.248 167.434 186.512C167.566 186.248 168.622 185.853 168.754 185.984C169.545 185.721 168.358 185.853 168.622 185.721C168.358 185.853 168.094 185.853 167.83 185.984C168.886 185.589 167.83 185.589 167.039 185.853H167.698C166.775 186.116 166.115 186.116 165.719 186.38C167.039 185.853 164.928 186.116 165.983 185.589L165.323 185.984C165.587 185.457 163.872 185.721 163.476 185.589C164.004 185.457 165.455 184.93 165.06 185.325C165.191 184.93 166.511 184.666 167.17 184.139C167.566 183.612 165.719 184.535 165.191 184.666L165.587 184.798C163.74 185.325 165.587 184.007 164.4 184.139C164.796 183.876 164.664 184.139 164.928 184.007C165.719 183.48 164.664 183.876 164.268 184.007C164.4 183.744 164.664 183.348 165.719 182.953C165.851 182.689 165.06 183.348 164.664 183.348L164.928 183.217L163.608 183.612C163.872 183.348 164.268 182.821 165.323 182.162C164.928 181.899 162.949 183.348 162.421 183.348C162.817 182.953 163.212 182.953 163.608 182.689L163.344 182.558C164.532 182.03 164.136 182.426 165.455 181.767C164.004 182.294 164.928 181.767 163.872 182.03L163.74 182.162C162.817 182.558 163.212 181.899 162.949 181.899C163.476 181.635 163.74 181.767 164.004 181.767C164.4 181.371 163.608 181.108 162.421 181.767C162.553 181.503 162.817 181.108 163.476 180.844C163.476 180.449 161.761 181.767 161.893 181.371L162.685 180.712C163.608 179.526 161.101 180.976 162.025 179.79L160.97 180.58C161.365 180.185 161.497 179.921 161.761 179.526L162.157 179.394C162.949 178.603 161.233 179.921 161.761 179.262C161.497 179.526 160.838 180.185 160.574 180.449C161.629 180.581 160.574 182.162 162.025 182.03C162.157 181.899 162.289 181.767 162.421 181.635C162.157 181.899 162.553 181.767 162.025 182.162H161.893C162.289 182.162 160.969 183.085 161.101 183.217C161.893 182.821 160.97 183.744 162.157 182.821L161.365 183.348C161.893 183.085 162.421 182.689 162.685 182.689C162.685 182.821 162.157 183.217 161.761 183.217C161.497 183.876 161.893 184.271 162.553 184.535L161.893 184.666C161.629 184.93 163.212 184.535 161.497 185.194C162.289 185.062 161.233 185.984 162.949 185.194C161.365 186.116 162.421 185.984 162.817 186.248C164.268 185.589 163.344 186.38 164.004 186.116C162.817 186.512 162.685 186.248 162.025 186.644C163.872 186.248 160.97 187.962 164.004 187.039C163.872 187.171 163.74 187.171 163.608 187.171C163.608 187.171 163.08 187.434 163.08 187.566C163.608 187.434 163.872 187.171 164.004 187.303C163.872 187.434 163.08 187.698 162.685 187.83C163.476 187.83 163.872 188.093 165.06 187.83C164.796 187.962 164.136 188.225 163.872 188.225C164.928 188.357 163.74 188.621 164.4 188.884C164.268 188.752 163.081 189.148 163.608 188.752C161.893 189.28 164.004 189.28 163.212 189.675L164.4 189.543C164.664 189.675 163.608 189.939 163.08 189.807C162.421 190.202 163.08 190.202 163.212 190.466C163.08 190.466 162.817 190.466 162.949 190.466V190.729C163.212 190.729 163.872 190.729 164.532 190.729C164.136 191.388 163.74 191.388 164.136 191.125Z" fill="#3E240C"/>
<path d="M168.886 186.907C168.622 187.039 168.49 187.039 168.49 187.171C168.622 187.039 168.754 186.907 168.886 186.907Z" fill="#3E240C"/>
<path d="M166.907 194.684C168.622 194.684 166.643 194.42 167.039 194.288C167.302 194.42 168.358 194.42 168.754 194.42C166.511 194.156 169.15 194.156 168.754 193.761C169.545 193.761 169.545 193.893 170.337 194.025C169.809 193.761 169.413 193.497 168.226 193.366C168.226 192.97 168.622 192.707 168.358 192.575C168.886 192.838 169.545 192.575 170.733 192.707C169.281 192.443 167.566 191.916 165.719 191.784C167.039 191.652 167.17 191.52 168.49 191.52C169.281 190.993 167.17 191.52 167.566 191.125L167.302 191.389C166.907 191.257 165.587 191.389 164.664 191.389L164.928 191.784C164.004 191.916 164.136 191.652 163.872 191.52C162.685 191.52 163.08 191.784 162.157 191.916C162.949 191.916 162.685 192.048 163.08 192.179H162.553C162.025 192.443 163.344 192.443 163.344 192.575C163.212 192.575 163.08 192.575 162.949 192.575C163.476 192.575 164.268 192.575 164.4 192.707V192.575C165.587 192.707 166.379 192.97 167.698 192.707L167.302 193.234C165.983 193.234 164.004 193.234 163.74 192.97H163.212C162.421 193.102 164.268 193.366 165.323 193.234C168.49 193.366 165.455 193.893 166.775 194.288C165.851 194.288 165.587 194.156 164.928 194.025C164.796 193.893 164.796 193.893 165.587 193.893C165.06 193.497 162.817 194.025 163.08 193.497C163.476 193.234 164.532 193.761 164.532 193.366L162.157 193.234C162.289 193.366 162.685 193.497 162.949 193.761C163.74 194.156 163.74 194.552 163.608 194.815C163.476 195.079 163.08 195.211 163.08 195.211C163.212 196.397 163.344 197.715 163.212 199.033C163.476 199.56 163.344 199.56 165.455 200.483C165.983 200.615 165.851 200.219 166.643 200.615C165.851 200.351 165.455 199.956 165.587 199.824C166.379 200.088 165.983 200.088 166.115 200.088H166.247C166.643 200.219 166.907 200.351 166.907 200.483C168.226 200.615 168.094 199.956 166.511 199.297C167.434 199.297 167.83 199.824 168.358 200.088C169.149 199.429 169.15 198.77 169.413 197.979C167.962 197.715 168.49 197.715 167.434 197.452H167.962C167.698 197.452 166.643 197.188 166.379 197.32C167.698 197.056 164.4 196.529 163.74 196.133L164.532 196.265C164.4 196.002 164.4 196.002 164.004 195.738C165.587 195.474 164.268 196.133 166.115 196.133L165.851 196.002C166.643 196.133 167.962 196.397 168.49 196.529C167.302 196.002 169.018 196.002 168.094 195.474C169.018 195.606 169.677 196.002 169.677 196.133C169.809 196.002 169.15 195.606 169.941 195.738L168.886 195.606C168.754 195.343 169.941 195.738 170.601 195.606C170.997 194.815 167.566 195.211 166.907 194.684Z" fill="#3E240C"/>
<path d="M167.039 188.621C166.907 188.751 167.039 188.751 167.17 188.751C167.17 188.751 167.17 188.621 167.039 188.621Z" fill="#3E240C"/>
<path d="M170.865 189.28C170.337 189.411 170.337 189.28 169.677 189.411C170.073 189.411 170.073 189.675 170.865 189.28Z" fill="#3E240C"/>
<path d="M158.99 171.354C158.727 171.618 158.463 171.75 158.331 172.013L158.727 171.881L158.99 171.354Z" fill="#3E240C"/>
<path d="M158.595 172.672L158.463 173.199L159.518 172.145C159.386 171.881 158.859 172.804 158.595 172.672Z" fill="#3E240C"/>
<path d="M158.595 173.727L158.331 173.99C158.463 173.858 158.595 173.727 158.595 173.727Z" fill="#3E240C"/>
<path d="M158.99 173.199L159.782 172.409L158.99 172.804V173.199C158.727 173.331 158.727 173.595 158.595 173.727L159.122 173.199C159.122 173.199 158.99 173.331 158.99 173.199Z" fill="#3E240C"/>
<path d="M159.254 173.331C159.254 173.199 159.386 173.199 159.386 173.068C159.386 173.199 159.254 173.331 159.254 173.331Z" fill="#3E240C"/>
<path d="M158.463 175.308C158.727 174.913 159.122 174.649 159.518 174.254C159.65 173.727 158.595 175.045 158.727 174.518C159.518 174.122 158.99 173.99 159.386 173.463C158.727 174.122 158.331 174.781 158.463 175.308L158.859 174.649C158.859 174.781 158.595 175.045 158.463 175.308Z" fill="#3E240C"/>
<path d="M160.442 174.781L159.65 175.44C159.914 175.045 159.782 174.913 160.442 174.122C160.31 174.122 159.914 174.518 159.65 174.649C159.914 174.254 160.178 173.858 159.65 174.386C159.518 175.177 159.254 175.308 159.386 175.836C159.254 175.967 159.254 175.967 159.254 175.836L159.122 176.363C159.782 175.44 160.178 175.572 160.442 174.781Z" fill="#3E240C"/>
<path d="M160.178 175.704C160.046 175.572 159.254 176.231 158.859 176.758L159.65 176.495C159.65 176.363 159.518 176.363 160.178 175.704Z" fill="#3E240C"/>
<path d="M160.442 175.836C160.178 176.231 159.386 177.154 160.178 176.495C159.914 176.495 161.101 175.44 160.442 175.836Z" fill="#3E240C"/>
<path d="M160.706 177.549L160.97 176.758C161.893 175.704 161.365 176.626 161.893 176.231C161.893 175.836 161.629 176.231 160.838 176.626C160.838 176.495 160.178 176.89 159.914 177.022C160.969 176.758 158.727 178.999 160.706 177.549Z" fill="#3E240C"/>
<path d="M161.101 176.099L160.706 176.495L161.101 176.231V176.099Z" fill="#3E240C"/>
<path d="M160.31 179.262C159.254 180.449 161.233 178.999 160.97 179.658C160.838 179.658 160.838 179.79 160.574 179.922H160.838L160.574 180.185C161.233 179.526 161.761 179.526 162.421 179.131C163.08 178.34 161.497 179.79 162.157 178.867C162.553 178.603 163.08 178.208 163.344 178.076C162.949 178.208 162.421 178.603 162.025 178.867C161.893 178.867 162.289 178.472 162.553 178.208C162.025 178.472 160.969 179.394 161.101 178.999C161.629 178.34 162.157 178.208 161.761 178.208C160.706 179.262 161.761 177.813 160.97 178.472C161.101 178.076 161.629 177.417 162.025 177.022C161.101 177.813 160.31 178.34 159.914 178.472L160.838 178.076L159.914 179.131C160.31 178.735 160.31 178.999 160.31 179.262Z" fill="#3E240C"/>
<path d="M163.212 178.075C163.344 178.075 163.344 177.944 163.476 177.944C163.476 177.944 163.344 177.944 163.212 178.075Z" fill="#3E240C"/>
<path d="M162.025 176.758L162.289 176.626L162.553 176.231L162.025 176.758Z" fill="#3E240C"/>
<path d="M164.136 177.549C164.136 177.417 163.74 177.813 163.74 177.813L164.268 177.417L164.136 177.549Z" fill="#3E240C"/>
<path d="M163.476 178.34L162.949 178.867L163.476 178.603V178.34Z" fill="#3E240C"/>
<path d="M165.587 182.821C165.983 182.426 165.06 182.953 164.532 183.217C164.532 183.612 165.323 182.821 165.587 182.821Z" fill="#3E240C"/>
<path d="M167.962 185.326C168.49 184.93 167.566 185.062 167.566 184.93C167.17 185.194 167.566 185.326 167.962 185.326Z" fill="#3E240C"/>
<path d="M171.524 185.721C171.26 185.721 170.997 185.721 170.997 185.853L169.281 186.116C168.754 186.644 170.865 185.984 171.524 185.721Z" fill="#3E240C"/>
<path d="M172.184 187.434L171.524 187.303V187.434C170.865 187.566 170.469 187.566 169.941 187.566C170.337 187.698 170.997 187.698 172.184 187.434Z" fill="#3E240C"/>
<path d="M169.545 187.434C169.545 187.434 169.677 187.434 169.545 187.434C169.941 187.434 170.073 187.304 169.545 187.434Z" fill="#3E240C"/>
<path d="M169.677 187.565C169.809 187.565 169.809 187.565 169.809 187.565C169.809 187.565 169.809 187.435 169.677 187.565C169.545 187.565 169.413 187.565 169.677 187.565Z" fill="#3E240C"/>
<path d="M171.392 187.83L171.656 188.225L171.92 187.962C170.997 188.093 172.58 187.566 171.392 187.83Z" fill="#3E240C"/>
<path d="M170.997 190.334L169.941 190.466C169.809 190.729 171.92 190.861 170.337 191.257C170.997 191.125 171.524 191.389 171.788 190.993C170.865 190.993 170.733 190.598 170.997 190.334Z" fill="#3E240C"/>
<path d="M169.677 191.652C169.413 191.652 169.15 191.652 168.886 191.784C168.754 191.916 169.281 191.916 169.677 191.916C168.226 191.916 170.469 191.652 169.677 191.652Z" fill="#3E240C"/>
<path d="M169.809 192.97C169.809 192.838 169.677 192.838 169.413 192.97C169.545 193.234 170.601 193.102 171.26 193.234C171.92 192.838 170.337 192.707 169.809 192.97Z" fill="#3E240C"/>
<path d="M162.289 194.551C163.212 194.551 163.08 194.42 162.685 194.42C162.949 194.42 162.685 194.551 162.289 194.551Z" fill="#3E240C"/>
<path d="M169.545 194.947L169.677 194.815L168.358 194.684L169.545 194.947Z" fill="#3E240C"/>
<path d="M170.073 196.397L170.997 196.661L170.865 196.397H170.073Z" fill="#3E240C"/>
<path d="M169.809 196.661V196.924H170.205C170.469 196.792 169.809 196.792 169.809 196.661Z" fill="#3E240C"/>
<path d="M169.941 197.452C169.809 197.452 170.073 197.452 170.205 197.452L169.677 197.188L169.941 197.452Z" fill="#3E240C"/>
<path d="M163.872 199.692C163.08 199.429 163.476 199.692 163.344 199.56C163.476 199.692 164.664 199.956 163.872 199.692Z" fill="#3E240C"/>
</g>
<path d="M12.6738 121.137C12.6738 121.137 10.5628 177.944 15.4444 241.738C15.4444 241.738 7.26445 251.887 12.0141 265.463C12.0141 265.463 41.4358 265.463 45.2619 265.463C45.2619 265.463 53.1781 250.569 54.4974 230.139H80.6207C80.6207 230.139 90.3839 244.11 97.2446 255.841C99.3555 259.4 100.411 264.145 101.994 265.463C101.994 265.463 158.595 265.463 159.518 265.463C160.442 265.463 170.205 232.512 168.094 203.91C167.962 202.46 167.83 201.01 167.698 199.56C166.907 193.497 165.455 188.489 163.608 184.007C161.761 179.79 159.65 176.099 157.011 172.672C150.942 164.5 143.026 158.306 135.11 150.661C123.368 139.326 114.264 116.26 114.264 116.26C114.264 116.26 117.958 108.615 78.2458 106.77C38.5332 105.056 14.6528 110.724 12.6738 121.137Z" fill="#FBAF5E"/>
<path d="M80.6207 230.139L76.7946 224.34" stroke="#1B1C1E" stroke-width="1.2604" stroke-miterlimit="10" stroke-linecap="round" stroke-linejoin="round"/>
<path d="M105.557 175.572C97.7723 191.52 89.3284 193.234 89.3284 193.234C79.4333 205.096 74.8155 205.36 74.8155 205.36C69.5381 212.345 59.379 219.331 59.379 219.331C51.7268 216.431 44.3384 204.569 44.3384 204.569C37.7416 203.383 31.9364 190.07 31.9364 190.07C19.1387 182.821 13.7293 163.841 12.0142 155.801C11.8822 134.712 12.41 121.268 12.41 121.268C14.5209 110.988 38.2694 105.188 77.982 107.033C117.695 108.879 114 116.523 114 116.523C114 116.523 115.452 120.082 117.827 125.091C126.666 159.096 105.557 175.572 105.557 175.572Z" fill="#FFF0DD"/>
<path d="M114.132 116.26C116.375 122.059 115.188 128.649 110.834 133.131C100.147 144.202 78.6416 162.128 53.7058 158.569C40.6442 156.724 31.0129 151.584 24.2842 146.311C16.5 140.248 12.278 130.89 12.5419 121.005C14.6528 110.724 38.4013 104.925 78.1139 106.77C117.827 108.615 114.132 116.26 114.132 116.26Z" fill="#D1493B"/>
<path d="M66.5036 153.956C66.5036 147.629 61.3581 142.621 55.1571 142.621C48.9561 142.621 43.8106 147.761 43.8106 153.956C43.8106 156.856 44.8661 159.492 46.7132 161.469C48.8242 163.841 51.8587 165.291 55.1571 165.291C61.3581 165.291 66.5036 160.283 66.5036 153.956Z" fill="#FFAE1F"/>
<path d="M46.5813 161.469C48.6923 163.841 51.7268 165.291 55.0252 165.291C61.3581 165.291 66.3716 160.151 66.3716 153.956" stroke="#1B1C1E" stroke-width="1.2604" stroke-miterlimit="10" stroke-linecap="round" stroke-linejoin="round"/>
<path d="M82.2039 43.3718C82.2039 43.3718 95.2656 20.1741 100.147 3.17134C101.071 0.00802147 104.897 -1.04642 107.404 1.19426C116.903 10.0252 132.867 32.6956 110.966 73.4233C111.098 73.4233 80.7526 62.0881 82.2039 43.3718Z" fill="#FBAF5E"/>
<path d="M110.174 65.3832C108.195 61.1654 105.688 56.9477 102.126 53.3889C98.1681 49.4348 97.2446 43.3718 99.3556 38.2314C103.05 29.5323 106.216 19.1197 107.667 14.1111C108.063 12.7931 109.778 12.5295 110.57 13.7157C125.743 35.4635 110.174 65.3832 110.174 65.3832Z" fill="#BC763C"/>
<path d="M110.174 65.3832C108.855 68.1511 87.0855 59.452 94.21 48.644C94.342 48.3804 94.6059 47.985 94.8697 47.7213C102.39 51.9391 107.008 58.5293 110.174 65.3832Z" fill="#BC763C"/>
<path d="M122.972 104.266C114.528 119.95 99.0917 131.549 85.1065 139.589C66.3716 150.265 43.019 148.42 26.3951 134.712C4.09799 116.392 -1.70717 97.8071 0.403796 96.3573C1.32735 95.6983 2.91057 92.6667 4.62573 88.9762C4.62573 88.9762 11.0906 88.1854 22.9648 94.7756C34.7071 101.234 43.4148 96.2255 45.6577 74.6095C48.1645 49.0394 52.5184 42.0537 52.5184 42.0537C56.6084 41.6583 61.6219 41.3947 66.8994 41.6583C66.8994 41.6583 57.7958 78.0364 68.2187 93.853C75.4752 104.925 90.6478 97.5435 100.015 92.5349C109.251 87.6582 116.639 87.2627 116.639 87.2627C116.903 88.0536 117.035 88.8444 117.167 89.3716C119.146 96.3573 122.972 104.266 122.972 104.266Z" fill="#FFF0DD"/>
<path d="M45.6577 43.108C47.5048 42.5808 49.7477 42.3172 52.5184 41.9218C52.5184 41.9218 48.1645 48.9074 45.6577 74.4775C43.5468 95.9617 34.839 101.102 22.9648 94.6437C11.2225 88.0534 4.62573 88.8443 4.62573 88.8443C8.05606 81.0678 12.0141 70.128 12.0141 70.128C-5.1375 32.0364 12.9377 10.025 23.6245 1.06228C26.3951 -1.1784 30.6171 0.403252 31.1448 3.96198C34.3113 24.6553 45.6577 43.108 45.6577 43.108Z" fill="#FBAF5E"/>
<path d="M116.375 87.131C116.375 87.131 108.987 87.5264 99.7514 92.4031C90.5159 97.2799 75.3433 104.793 67.9549 93.7212C57.6639 77.9046 66.6355 41.5265 66.6355 41.5265C74.4197 41.7901 82.5997 42.8446 89.1965 45.217C90.6478 45.7443 91.9672 46.2715 93.2865 46.9305C93.6823 47.1941 94.2101 47.3259 94.6059 47.5895C102.126 51.8073 106.876 58.3975 109.91 65.2514C110.834 67.0966 111.494 68.9419 112.153 70.7872C114.528 77.3774 115.584 83.4404 116.375 87.131Z" fill="#FBAF5E"/>
<path d="M57.9277 106.243C55.0251 108.615 50.9351 108.483 48.1645 105.979C45.6577 103.738 42.8871 100.443 42.8871 96.7527C42.8871 92.535 62.2816 92.4032 62.8093 96.7527C63.469 100.443 60.6984 103.87 57.9277 106.243Z" fill="#1B1C1E"/>
<path d="M37.4777 86.8673C37.4777 88.9762 35.8945 91.3487 33.5197 91.2169C31.0129 90.9533 29.9574 88.7126 29.9574 86.7355C29.9574 84.6266 31.8045 83.045 33.7835 83.045C35.8945 83.045 37.4777 84.7585 37.4777 86.8673Z" fill="#1B1C1E"/>
<path d="M77.982 88.0536C77.982 90.1625 76.2668 92.2714 74.2878 92.1396C72.1768 92.1396 70.4617 89.8989 70.5936 87.79C70.5936 85.6811 72.4407 84.0995 74.4197 84.0995C76.3988 84.2313 77.982 85.9447 77.982 88.0536Z" fill="#1B1C1E"/>
<path d="M25.4716 52.5981C20.59 56.6841 16.8958 61.6927 14.6529 65.3832C-1.04746 36.1225 21.5135 3.03955 22.3052 15.9564C22.701 22.6785 25.9994 31.3776 28.9019 38.0996C31.2768 43.1082 29.8255 49.0394 25.4716 52.5981Z" fill="#BC763C"/>
<g opacity="0.62">
<path d="M46.5813 228.162C46.5813 228.294 46.4493 228.426 46.4493 228.557C46.4493 228.557 46.5813 228.426 46.5813 228.162Z" fill="#3E240C"/>
<path d="M41.5677 225.79L41.8316 225.394C41.8316 225.526 41.6997 225.658 41.5677 225.79Z" fill="#3E240C"/>
<path d="M45.5258 231.457C45.5258 231.589 45.5258 231.721 45.3939 232.116L45.5258 231.457Z" fill="#3E240C"/>
<path d="M44.0745 232.907C44.0745 233.039 43.9426 233.039 43.9426 233.171C43.9426 233.039 43.9426 233.039 44.0745 232.907Z" fill="#3E240C"/>
<path d="M51.4629 228.688C51.4629 228.558 51.4629 228.557 51.4629 228.557C51.5948 228.557 51.4629 228.558 51.4629 228.688Z" fill="#3E240C"/>
<path d="M51.331 230.139C51.4629 230.27 51.331 230.27 51.331 230.139V230.139Z" fill="#3E240C"/>
<path d="M51.5948 228.03C51.5948 228.162 51.5948 228.294 51.5948 228.426C51.5948 228.294 51.4629 228.294 51.5948 228.03Z" fill="#3E240C"/>
<path d="M46.7132 228.03C46.7132 228.162 46.5813 228.162 46.5813 228.294C46.7132 228.162 46.7132 228.03 46.7132 228.03Z" fill="#3E240C"/>
<path d="M40.2484 224.076C40.2484 223.944 40.2484 223.944 40.2484 223.812C40.3803 223.812 40.3803 223.944 40.2484 224.076Z" fill="#3E240C"/>
<path d="M49.8797 229.348C49.3519 230.798 50.0116 229.48 49.6158 230.798C49.6158 230.403 49.6158 230.271 49.3519 230.93C49.22 231.721 49.6158 230.93 49.22 232.116V231.589C48.9561 232.116 48.8242 233.171 48.6923 233.039C49.0881 231.325 48.0326 233.566 47.9006 233.171V233.302L47.3729 233.961C47.3729 233.961 47.3729 233.961 47.3729 234.093C47.3729 233.961 47.3729 233.961 47.5048 233.83C47.109 234.621 46.7132 235.016 46.5813 234.752C46.8452 233.83 46.0535 234.225 46.1855 233.302C46.1855 233.566 46.1855 233.566 46.4493 233.434L46.8452 232.38C46.7132 232.38 46.4493 233.434 46.4493 232.643C47.109 231.194 46.7132 232.775 46.9771 232.643C47.109 232.248 47.109 231.984 47.109 231.721C47.3729 231.721 47.7687 231.325 47.5048 232.907C47.6368 232.643 47.9006 231.984 47.9006 231.853C47.7687 232.775 48.2964 231.062 48.1645 231.853C48.5603 230.403 48.0326 230.93 48.1645 230.139C47.5048 231.194 47.6368 230.007 47.5048 229.744C47.109 230.798 46.8452 231.721 46.5813 232.248C46.0535 232.775 46.5813 231.589 46.7132 230.93C46.3174 231.194 45.9216 232.512 45.6577 232.512L45.5258 233.171C44.7342 234.489 45.6577 232.512 45.3939 232.775C45.6577 232.38 45.7897 232.116 45.9216 232.248C46.1855 231.721 46.1855 231.457 46.1855 231.457C46.4493 230.798 46.7132 230.007 46.4493 230.271C46.1855 231.194 46.0535 230.798 45.7897 231.194V231.325C45.7897 230.93 45.6577 231.062 45.6577 230.798L45.5258 231.062C45.6577 230.666 46.0535 229.612 45.7897 229.876C45.5258 230.271 45.13 231.457 45.13 231.194C44.8661 231.853 44.9981 231.984 45.2619 231.853C44.9981 231.984 44.3384 232.907 44.6023 233.039C44.2064 233.83 44.6023 232.643 44.3384 232.907C44.4703 232.643 44.6023 232.38 44.7342 232.116C44.2065 233.171 44.3384 231.984 44.7342 231.325L44.6023 231.984C45.13 231.194 45.13 230.535 45.5258 230.139C44.7342 231.325 45.3939 229.216 44.7342 230.271L45.13 229.612C44.6022 229.876 45.13 228.162 45.13 227.635C44.998 228.03 44.0745 229.48 44.6023 229.085C44.0745 229.085 43.6787 230.403 43.151 230.93C42.6232 231.194 43.8106 229.612 44.0745 229.085V229.48C44.8661 227.767 43.2829 229.348 43.5468 228.162C43.2829 228.557 43.4148 228.426 43.4148 228.557C42.7552 229.217 43.4148 228.294 43.5468 227.898C43.2829 227.898 42.8871 228.162 42.2274 229.085C41.8316 229.217 42.6232 228.557 42.7552 228.162L42.6232 228.294L43.2829 227.108C42.8871 227.371 42.3593 227.635 41.5677 228.426C41.4358 228.03 43.151 226.317 43.2829 225.79C42.7552 226.185 42.7551 226.449 42.4913 226.844L42.3593 226.58C41.5677 227.635 42.0955 227.239 41.1719 228.426C41.9635 227.108 41.1719 227.898 41.6997 226.844L41.8316 226.712C42.4913 225.79 41.6997 226.185 41.6997 225.921C41.3039 226.449 41.4358 226.58 41.3039 226.844C40.7761 227.108 40.7761 226.449 41.5677 225.262C41.3039 225.394 40.7761 225.526 40.5122 226.053C40.1164 225.921 41.8316 224.603 41.3039 224.603L40.5122 225.394C39.1929 226.185 41.04 223.944 39.7206 224.603L40.6442 223.681C40.2484 223.944 39.8526 224.076 39.4568 224.34L39.1929 224.735C38.2693 225.262 39.8526 223.944 39.1929 224.34C39.4568 224.076 40.2484 223.681 40.5122 223.417C40.5122 224.472 42.2274 223.681 41.8316 225.131C41.6997 225.262 41.5677 225.394 41.4358 225.526C41.6997 225.394 41.5677 225.658 42.0955 225.131V224.999C42.0955 225.394 43.2829 224.34 43.2829 224.34C42.7552 224.999 43.8106 224.34 42.7552 225.394L43.4148 224.735C43.151 225.131 42.6232 225.658 42.4913 225.921C42.6232 225.921 43.019 225.526 43.151 225.131C43.8106 224.999 44.2064 225.526 44.3384 226.185L44.6023 225.526C44.8661 225.262 44.2064 226.712 45.13 225.262C44.8661 225.921 45.9216 225.131 44.8661 226.712C46.0535 225.262 45.7897 226.449 45.9216 226.844C44.9981 228.162 45.9216 227.371 45.6577 228.03C46.3174 226.976 46.0535 226.844 46.4493 226.185C45.7897 228.03 47.9006 225.394 46.4493 228.162C46.5813 228.03 46.5813 227.898 46.7132 227.898C46.7132 227.898 47.109 227.503 47.241 227.371C46.9771 227.898 46.8452 228.03 46.8452 228.294C46.9771 228.294 47.3729 227.503 47.5048 227.108C47.3729 227.898 47.6368 228.294 47.109 229.48C47.3729 229.216 47.6368 228.557 47.7687 228.294C47.7687 229.348 48.1645 228.294 48.2965 228.953C48.1645 228.821 48.6922 227.767 48.4284 228.162C49.22 226.58 48.8242 228.689 49.4839 227.898L49.22 228.953C49.3519 229.216 49.7477 228.162 49.7477 227.767C50.2755 227.239 50.1435 227.898 50.4074 228.03C50.4074 227.898 50.5393 227.635 50.4074 227.767H50.6713C50.6713 228.03 50.5394 228.689 50.2755 229.348C50.1436 229.348 50.2755 228.953 49.8797 229.348Z" fill="#3E240C"/>
<path d="M44.9981 233.302C45.13 233.039 45.2619 232.907 45.2619 232.907C45.13 233.171 44.9981 233.302 44.9981 233.302Z" fill="#3E240C"/>
<path d="M52.9142 232.775C52.6503 234.489 52.7822 232.512 52.5184 232.907C52.6503 233.171 52.3864 234.225 52.3864 234.621C52.5184 232.38 52.1226 235.016 51.7268 234.489C51.5948 235.148 51.7268 235.411 51.5948 236.202C51.4629 235.675 51.199 235.28 51.331 233.961C50.9352 233.83 50.6713 234.225 50.4074 233.961C50.5393 234.489 50.1435 235.148 50.1435 236.334C50.1435 234.884 50.0116 233.039 50.1435 231.194C49.7477 232.512 49.7477 232.643 49.3519 233.83C48.6923 234.62 49.6158 232.512 49.088 232.775L49.3519 232.643C49.3519 232.248 49.6158 230.93 49.8797 230.007L50.2755 230.271C50.5393 229.348 50.2755 229.48 50.2755 229.216C50.5393 228.162 50.6713 228.557 50.9352 227.635C50.8032 228.426 50.9352 228.162 50.9352 228.557L51.0671 228.03C51.3309 227.503 51.199 228.821 51.331 228.821C51.331 228.689 51.4629 228.557 51.4629 228.557C51.331 229.085 51.331 229.744 51.331 230.007V229.876C51.199 231.062 51.4629 231.853 50.9352 233.171L51.4629 232.907C51.7268 231.589 51.9906 229.612 51.8587 229.348L51.9906 228.821C52.2545 228.162 52.2545 229.876 51.8587 231.062C51.4629 234.225 52.5184 231.325 52.6503 232.643C52.7823 231.853 52.6503 231.457 52.6503 230.798C52.5184 230.666 52.5184 230.666 52.3864 231.325C52.1226 230.798 52.9142 228.689 52.5184 228.821C52.2545 229.216 52.5184 230.271 52.1226 230.271L52.3864 227.898C52.5184 228.03 52.6503 228.426 52.7822 228.689C53.0461 229.48 53.4419 229.612 53.7058 229.48C53.9697 229.348 54.1016 229.085 54.1016 229.085C55.289 229.48 56.6084 229.744 57.7958 229.876C58.1916 230.139 58.3236 230.007 58.8513 232.38C58.8513 232.907 58.5874 232.643 58.7194 233.434C58.5874 232.512 58.3235 232.116 58.0597 232.248C58.0597 233.171 58.3235 232.643 58.3235 232.907C58.4555 233.302 58.4555 233.698 58.5874 233.698C58.4555 235.016 57.7958 234.752 57.5319 233.171C57.4 234.093 57.7958 234.489 57.9277 235.148C57.1361 235.807 56.4764 235.807 55.6848 235.807C55.6848 234.225 55.5529 234.884 55.5529 233.83L55.421 234.357C55.421 234.093 55.421 233.039 55.5529 232.775C55.0252 233.961 55.1571 230.666 54.8932 230.007V230.798C54.6294 230.666 54.6293 230.666 54.4974 230.139C53.9697 231.589 54.7613 230.403 54.4974 232.38L54.3655 232.116C54.3655 232.907 54.3655 234.225 54.4974 234.752C54.2335 233.434 53.8377 235.28 53.4419 234.225C53.4419 235.148 53.7058 235.807 53.8377 235.939C53.7058 236.07 53.4419 235.411 53.31 236.202L53.4419 235.148C53.1781 235.016 53.31 236.202 53.1781 236.861C52.3864 236.861 53.4419 233.434 52.9142 232.775Z" fill="#3E240C"/>
<path d="M46.9771 231.853C47.109 231.853 47.109 231.853 47.109 231.983L46.9771 231.853Z" fill="#3E240C"/>
<path d="M47.3729 234.225C47.3729 234.357 47.241 234.489 47.241 234.621C47.241 234.489 47.3729 234.357 47.3729 234.225Z" fill="#3E240C"/>
<path d="M46.9771 235.675C47.241 235.28 47.109 235.148 47.241 234.621C47.241 235.016 47.5049 235.016 46.9771 235.675Z" fill="#3E240C"/>
<path d="M31.4087 220.913C31.6726 220.781 31.9364 220.386 32.2003 220.386L31.9364 220.781L31.4087 220.913Z" fill="#3E240C"/>
<path d="M32.728 220.781H33.2558L32.0684 221.572C31.8045 221.308 32.86 221.045 32.728 220.781Z" fill="#3E240C"/>
<path d="M33.7835 220.913L34.0474 220.649C33.9155 220.781 33.9155 220.913 33.7835 220.913Z" fill="#3E240C"/>
<path d="M33.2558 221.308L32.3322 221.967L32.86 221.308H33.2558C33.5196 221.045 33.6516 221.045 33.7835 221.045L33.1238 221.572C33.2558 221.308 33.3877 221.176 33.2558 221.308Z" fill="#3E240C"/>
<path d="M33.2557 221.572C33.1238 221.572 33.1238 221.703 32.9919 221.703C33.1238 221.572 33.2557 221.572 33.2557 221.572Z" fill="#3E240C"/>
<path d="M35.3668 221.045C34.971 221.176 34.5752 221.572 34.1793 221.835C33.6516 221.835 35.1029 221.045 34.5751 221.045C34.0474 221.704 33.9155 221.308 33.3877 221.44C34.3113 221.045 34.971 220.781 35.3668 220.781L34.839 221.176C34.7071 221.308 35.1029 221.045 35.3668 221.045Z" fill="#3E240C"/>
<path d="M34.5751 222.89L35.3668 222.231C34.971 222.494 34.839 222.231 33.9155 222.758C34.0474 222.626 34.3113 222.363 34.5751 222.099C34.0474 222.363 33.6516 222.494 34.3113 221.967C35.1029 221.967 35.2348 221.704 35.7626 221.967C35.8945 221.835 35.8945 221.835 35.8945 221.835L36.5542 221.704C35.2348 222.363 35.3668 222.758 34.5751 222.89Z" fill="#3E240C"/>
<path d="M35.3667 222.89C35.2348 222.626 36.0264 222.099 36.6861 221.835L36.2903 222.626C36.1584 222.494 36.1584 222.231 35.3667 222.89Z" fill="#3E240C"/>
<path d="M35.6306 223.022C36.1584 222.758 37.2139 222.231 36.4223 222.89C36.2903 222.758 35.1029 223.681 35.6306 223.022Z" fill="#3E240C"/>
<path d="M37.2139 223.681L36.4222 223.813C35.2348 224.472 36.1584 224.208 35.7626 224.735C35.3668 224.603 35.7626 224.472 36.2903 223.813C36.1584 223.813 36.6861 223.285 36.95 223.022C36.2903 223.813 39.061 221.967 37.2139 223.681Z" fill="#3E240C"/>
<path d="M35.6306 223.813L36.0264 223.549L35.8945 223.944L35.6306 223.813Z" fill="#3E240C"/>
<path d="M38.929 223.549C40.2484 222.758 38.5332 224.472 39.1929 224.208C39.1929 224.076 39.3249 224.076 39.4568 223.944V224.208L39.7207 223.944C38.929 224.603 38.7971 224.999 38.4013 225.526C37.4778 226.053 39.1929 224.735 38.2694 225.262C38.0055 225.526 37.4777 226.053 37.2139 226.317C37.4777 225.921 37.8736 225.526 38.2694 225.131C38.2694 224.999 37.8736 225.394 37.6097 225.526C37.8736 224.999 39.061 224.208 38.5332 224.208C37.7416 224.603 37.6097 225.131 37.6097 224.603C38.929 223.813 37.2139 224.472 38.0055 223.813C37.6097 223.813 36.8181 224.34 36.4223 224.603C37.3458 223.944 38.0055 223.153 38.2694 222.89L37.7416 223.813L38.929 223.022C38.4013 223.549 38.6652 223.549 38.929 223.549Z" fill="#3E240C"/>
<path d="M37.2139 226.185C37.2139 226.317 37.0819 226.317 37.0819 226.449C37.0819 226.449 37.0819 226.317 37.2139 226.185Z" fill="#3E240C"/>
<path d="M36.1584 224.867L35.8945 224.999L35.6306 225.262L36.1584 224.867Z" fill="#3E240C"/>
<path d="M36.5542 226.976C36.5542 226.976 36.818 226.712 36.95 226.712L36.5542 227.239V226.976Z" fill="#3E240C"/>
<path d="M37.4777 226.58L38.1374 226.185L37.7416 226.58H37.4777Z" fill="#3E240C"/>
<path d="M41.5677 229.48C41.1719 229.744 41.6997 229.085 42.0955 228.426C42.4913 228.426 41.6997 229.085 41.5677 229.48Z" fill="#3E240C"/>
<path d="M43.5468 232.248C43.019 232.643 43.4148 231.853 43.2829 231.721C43.6787 231.325 43.6787 231.721 43.5468 232.248Z" fill="#3E240C"/>
<path d="M43.2829 235.675C43.4148 235.411 43.4148 235.148 43.5468 235.148L44.2064 233.566C44.7342 233.171 43.6787 235.016 43.2829 235.675Z" fill="#3E240C"/>
<path d="M44.8661 236.729V236.07H44.998C45.2619 235.411 45.2619 235.148 45.3938 234.621C45.3938 234.884 45.3938 235.543 44.8661 236.729Z" fill="#3E240C"/>
<path d="M45.3939 234.093C45.3939 234.093 45.3939 234.225 45.3939 234.093C45.2619 234.357 45.13 234.62 45.3939 234.093Z" fill="#3E240C"/>
<path d="M45.5258 234.357C45.5258 234.489 45.5258 234.489 45.5258 234.489C45.3939 234.357 45.3939 234.357 45.5258 234.357C45.3939 234.093 45.5258 233.961 45.5258 234.357Z" fill="#3E240C"/>
<path d="M45.3939 235.939L45.7897 236.334L45.5258 236.598C45.7897 235.543 44.9981 236.993 45.3939 235.939Z" fill="#3E240C"/>
<path d="M48.0326 235.939L48.4284 235.016C48.6923 234.884 48.5603 237.125 49.0881 235.543C48.8242 236.07 49.0881 236.729 48.5603 236.861C48.6923 236.07 48.2965 235.807 48.0326 235.939Z" fill="#3E240C"/>
<path d="M49.4839 234.884C49.4839 234.621 49.6158 234.357 49.7477 234.093C49.8797 233.961 49.8797 234.489 49.7477 234.884C50.0116 233.566 49.3519 235.675 49.4839 234.884Z" fill="#3E240C"/>
<path d="M50.8032 235.28C50.6713 235.28 50.6713 235.148 50.8032 234.884C51.0671 235.016 50.6713 236.07 50.6713 236.861C50.2755 237.388 50.5393 235.807 50.8032 235.28Z" fill="#3E240C"/>
<path d="M53.7058 228.162C53.5739 228.953 53.4419 228.821 53.4419 228.557C53.4419 228.821 53.5739 228.557 53.7058 228.162Z" fill="#3E240C"/>
<path d="M52.7823 235.411L52.6503 235.543L52.7823 234.225V235.411Z" fill="#3E240C"/>
<path d="M54.1016 236.202L54.2336 237.125L53.9697 236.861L54.1016 236.202Z" fill="#3E240C"/>
<path d="M54.4974 236.07L54.7613 236.202L54.6294 236.598C54.4974 236.729 54.4974 236.07 54.4974 236.07Z" fill="#3E240C"/>
<path d="M55.1571 236.202C55.1571 236.07 55.1571 236.202 55.0251 236.466L54.7613 235.939L55.1571 236.202Z" fill="#3E240C"/>
<path d="M58.4555 230.666C58.3235 229.744 58.4555 230.271 58.4555 230.139C58.4555 230.271 58.5874 231.457 58.4555 230.666Z" fill="#3E240C"/>
</g>
<path d="M21.1177 265.463C21.1177 265.463 19.1387 254.918 23.8883 250.305" stroke="#1B1C1E" stroke-width="1.2604" stroke-miterlimit="10" stroke-linecap="round" stroke-linejoin="round"/>
<path d="M32.5961 265.463C32.5961 265.463 30.749 260.322 34.839 251.623" stroke="#1B1C1E" stroke-width="1.2604" stroke-miterlimit="10" stroke-linecap="round" stroke-linejoin="round"/>
<path d="M54.4974 230.139C54.4974 230.139 38.4013 231.589 29.9574 213.136" stroke="#1B1C1E" stroke-width="1.2604" stroke-miterlimit="10" stroke-linecap="round" stroke-linejoin="round"/>
<path d="M132.471 265.463C132.471 265.463 135.374 258.741 134.055 247.669C132.735 236.598 122.84 192.048 124.028 189.939" stroke="#1B1C1E" stroke-width="1.2604" stroke-miterlimit="10" stroke-linecap="round" stroke-linejoin="round"/>
<path d="M32.0684 189.939C32.0684 189.939 29.4296 183.48 28.638 177.944" stroke="#1B1C1E" stroke-width="1.2604" stroke-miterlimit="10" stroke-linecap="round" stroke-linejoin="round"/>
<path d="M44.6022 204.569C44.6022 204.569 42.4913 200.878 41.5677 196.529" stroke="#1B1C1E" stroke-width="1.2604" stroke-miterlimit="10" stroke-linecap="round" stroke-linejoin="round"/>
<path d="M74.9474 205.228C74.9474 205.228 79.4333 199.824 80.2249 196.397" stroke="#1B1C1E" stroke-width="1.2604" stroke-miterlimit="10" stroke-linecap="round" stroke-linejoin="round"/>
<path d="M89.3284 193.102C89.3284 193.102 96.9807 183.612 98.1681 173.199" stroke="#1B1C1E" stroke-width="1.2604" stroke-miterlimit="10" stroke-linecap="round" stroke-linejoin="round"/>
<path d="M105.557 175.572C105.557 175.572 108.855 169.377 109.515 163.182" stroke="#1B1C1E" stroke-width="1.2604" stroke-miterlimit="10" stroke-linecap="round" stroke-linejoin="round"/>
<path d="M112.285 265.463C112.285 265.463 109.119 260.981 109.778 252.81" stroke="#1B1C1E" stroke-width="1.2604" stroke-miterlimit="10" stroke-linecap="round" stroke-linejoin="round"/>
<path d="M121.785 265.463C121.785 265.463 120.465 258.477 121.785 252.81" stroke="#1B1C1E" stroke-width="1.2604" stroke-miterlimit="10" stroke-linecap="round" stroke-linejoin="round"/>
<path d="M139.2 265.463C139.2 265.463 136.166 258.873 139.728 251.755" stroke="#1B1C1E" stroke-width="1.2604" stroke-miterlimit="10" stroke-linecap="round" stroke-linejoin="round"/>
<path d="M149.227 265.463C149.227 265.463 147.908 257.686 152.526 252.81" stroke="#1B1C1E" stroke-width="1.2604" stroke-miterlimit="10" stroke-linecap="round" stroke-linejoin="round"/>
<path d="M53.4419 114.415C53.4419 114.415 66.5036 120.873 73.3642 114.283C75.6071 112.174 76.0029 106.506 71.6491 102.552" stroke="#1B1C1E" stroke-width="1.2604" stroke-miterlimit="10" stroke-linecap="round" stroke-linejoin="round"/>
<path d="M52.9142 107.956C52.9142 107.956 52.5184 110.065 53.4419 114.415C53.7058 115.601 39.9845 120.346 34.7071 114.283C32.86 112.174 32.0684 107.956 36.0264 103.211" stroke="#1B1C1E" stroke-width="1.2604" stroke-miterlimit="10" stroke-linecap="round" stroke-linejoin="round"/>
<path d="M48.1645 116.919C48.1645 116.919 50.0116 117.973 53.7058 118.237C57.6639 118.501 59.2471 117.051 59.2471 117.051" stroke="#1B1C1E" stroke-width="1.2604" stroke-miterlimit="10" stroke-linecap="round" stroke-linejoin="round"/>
<path d="M131.02 230.139C131.02 230.139 136.429 230.007 139.728 224.34" stroke="#1B1C1E" stroke-width="1.2604" stroke-miterlimit="10" stroke-linecap="round" stroke-linejoin="round"/>
<path d="M167.566 199.56C166.775 193.497 165.323 188.489 163.476 184.007C161.629 179.79 159.518 176.099 156.88 172.672" stroke="#1B1C1E" stroke-width="1.2604" stroke-miterlimit="10" stroke-linecap="round" stroke-linejoin="round"/>
<g opacity="0.62">
<path d="M133.263 229.48C133.395 229.612 133.395 229.744 133.527 229.876C133.527 229.876 133.527 229.744 133.263 229.48Z" fill="#3E240C"/>
<path d="M137.353 225.658L136.957 225.394C137.089 225.526 137.221 225.526 137.353 225.658Z" fill="#3E240C"/>
<path d="M135.242 232.248C135.242 232.38 135.374 232.512 135.506 232.775L135.242 232.248Z" fill="#3E240C"/>
<path d="M137.221 233.302C137.353 233.302 137.353 233.433 137.485 233.433C137.353 233.302 137.221 233.302 137.221 233.302Z" fill="#3E240C"/>
<path d="M128.777 231.456C128.777 231.456 128.777 231.325 128.645 231.325C128.777 231.325 128.777 231.325 128.777 231.456Z" fill="#3E240C"/>
<path d="M128.909 232.248C128.909 232.248 128.777 232.248 128.909 232.248V232.38C128.909 232.512 128.909 232.38 128.909 232.248Z" fill="#3E240C"/>
<path d="M129.437 239.365L129.569 239.893C129.569 239.629 129.569 239.497 129.437 239.365Z" fill="#3E240C"/>
<path d="M128.513 230.798C128.513 230.93 128.645 231.062 128.645 231.194C128.645 231.062 128.645 231.062 128.513 230.798Z" fill="#3E240C"/>
<path d="M133.131 229.348C133.263 229.479 133.263 229.479 133.263 229.479L133.131 229.348Z" fill="#3E240C"/>
<path d="M138.277 223.681C138.277 223.549 138.277 223.549 138.145 223.417C137.881 223.549 138.013 223.549 138.277 223.681Z" fill="#3E240C"/>
<path d="M130.492 231.589C131.416 232.775 130.36 231.721 131.152 232.907C131.02 232.643 131.02 232.38 131.416 232.907C131.812 233.698 131.152 232.907 131.812 233.961L131.68 233.434C132.076 233.83 132.603 234.752 132.603 234.621C131.68 233.171 133.395 234.884 133.395 234.489V234.621L134.055 235.148C134.055 235.148 134.055 235.148 134.055 235.28C134.055 235.148 133.923 235.148 133.923 235.016C134.582 235.675 135.11 235.939 135.11 235.675C134.582 234.884 135.506 234.884 134.978 234.225C135.11 234.489 134.978 234.489 134.714 234.357L133.923 233.434C134.055 233.302 134.582 234.225 134.318 233.566C133.263 232.38 134.055 233.698 133.923 233.698C133.791 233.434 133.527 233.039 133.527 232.907C133.263 233.039 132.735 232.775 133.527 234.093C133.263 233.83 132.867 233.302 132.867 233.171C133.263 234.093 132.208 232.512 132.603 233.302C131.812 232.116 132.471 232.38 132.076 231.721C132.999 232.512 132.603 231.457 132.603 231.062C133.263 231.853 133.791 232.643 134.318 233.171C134.978 233.566 134.187 232.512 133.923 231.984C134.319 232.116 135.11 233.302 135.506 233.171L135.77 233.83C136.957 234.884 135.506 233.302 135.77 233.434C135.506 233.171 135.242 232.907 135.11 233.039C134.714 232.643 134.714 232.38 134.714 232.248C134.318 231.721 133.659 231.062 134.055 231.194C134.582 231.984 134.582 231.589 134.978 231.853L135.11 231.984C134.978 231.721 135.242 231.589 135.11 231.457L135.242 231.589C135.11 231.194 134.319 230.403 134.582 230.535C134.846 230.798 135.638 231.853 135.638 231.589C136.166 232.116 136.034 232.248 135.77 232.248C136.034 232.248 136.957 233.039 136.825 233.171C137.485 233.698 136.693 232.775 137.089 232.907C136.825 232.775 136.693 232.512 136.561 232.38C137.353 233.171 136.957 232.116 136.298 231.589L136.561 232.248C135.902 231.589 135.638 231.062 135.11 230.666C136.298 231.589 134.978 229.876 135.902 230.535L135.242 230.139C135.902 230.139 134.714 228.821 134.714 228.294C134.978 228.689 136.298 229.744 135.638 229.612C136.166 229.48 136.957 230.535 137.617 230.93C138.277 231.062 136.561 229.876 136.166 229.48L136.298 229.876C134.978 228.557 137.089 229.48 136.429 228.557C136.825 228.821 136.561 228.821 136.693 228.953C137.617 229.348 136.693 228.689 136.429 228.426C136.693 228.426 137.089 228.426 138.013 229.217C138.408 229.217 137.353 228.821 137.221 228.557L137.485 228.689L136.561 227.767C136.957 227.898 137.617 228.03 138.54 228.557C138.54 228.03 136.429 226.976 136.166 226.449C136.825 226.58 136.957 226.976 137.221 227.239V226.976C138.277 227.767 137.617 227.635 138.936 228.426C137.749 227.371 138.672 227.898 138.013 227.108H137.881C137.089 226.449 137.881 226.58 137.749 226.317C138.277 226.712 138.277 226.844 138.409 227.108C138.936 227.239 138.804 226.449 137.617 225.658C137.881 225.658 138.408 225.658 138.936 226.185C139.332 225.921 137.221 225.131 137.749 224.999L138.672 225.526C140.124 225.79 137.749 224.34 139.2 224.603L138.013 224.076C138.54 224.208 138.804 224.208 139.332 224.34L139.596 224.735C140.651 224.999 138.804 224.208 139.464 224.34C139.068 224.208 138.277 223.944 137.881 223.812C138.277 224.735 136.298 224.603 137.089 225.79C137.221 225.79 137.353 225.921 137.617 226.053C137.353 225.921 137.485 226.317 136.957 225.921L136.825 225.79C136.957 226.053 135.506 225.394 135.506 225.526C136.166 226.053 134.978 225.658 136.298 226.317L135.506 225.921C135.902 226.185 136.561 226.58 136.825 226.844C136.693 226.844 136.166 226.58 135.902 226.317C135.11 226.449 134.978 226.976 135.11 227.635L134.582 227.108C134.187 226.976 135.374 228.162 133.923 226.976C134.319 227.635 133.131 227.108 134.582 228.294C133.131 227.239 133.659 228.294 133.659 228.689C134.846 229.744 133.791 229.216 134.318 229.744C133.395 228.953 133.527 228.689 132.999 228.162C134.187 229.612 131.416 227.898 133.527 230.139C133.395 230.139 133.263 230.007 133.263 229.876C133.263 229.876 132.735 229.612 132.603 229.612C132.999 230.007 133.263 230.139 133.263 230.403C133.131 230.403 132.603 229.744 132.208 229.48C132.603 230.139 132.471 230.666 133.263 231.589C132.999 231.325 132.471 230.93 132.339 230.666C132.735 231.589 131.944 230.798 132.076 231.457C132.208 231.325 131.284 230.403 131.812 230.666C130.492 229.348 131.548 231.325 130.756 230.798L131.416 231.721C131.416 231.984 130.756 231.194 130.624 230.798C129.965 230.403 130.228 231.062 130.097 231.194C129.965 231.062 129.833 230.93 129.965 230.93L129.701 231.062C129.833 231.325 130.097 231.853 130.492 232.38C130.228 231.721 130.097 231.325 130.492 231.589Z" fill="#3E240C"/>
<path d="M136.429 233.962C136.166 233.83 136.034 233.698 136.034 233.698C136.166 233.698 136.298 233.83 136.429 233.962Z" fill="#3E240C"/>
<path d="M128.645 235.807C129.437 237.388 128.777 235.411 129.041 235.807C129.041 236.07 129.437 236.993 129.701 237.388C128.909 235.28 130.097 237.652 130.229 237.125C130.624 237.784 130.492 237.916 130.756 238.706C130.756 238.047 130.888 237.652 130.36 236.598C130.624 236.466 131.152 236.598 131.152 236.334C131.152 236.861 131.68 237.388 132.076 238.443C131.68 236.993 131.284 235.28 130.624 233.566C131.416 234.752 131.548 234.752 132.076 235.939C132.999 236.466 131.548 234.752 132.076 234.884L131.812 234.752C131.68 234.357 131.02 233.171 130.492 232.38L130.229 232.775C129.701 231.984 129.965 231.984 129.965 231.721C129.437 230.666 129.305 231.194 128.909 230.403C129.305 231.062 129.041 230.93 129.173 231.325L128.909 230.93C128.513 230.535 129.041 231.721 128.909 231.721C128.777 231.589 128.777 231.457 128.777 231.457C129.041 231.984 129.305 232.643 129.305 232.775V232.643C129.833 233.698 129.833 234.62 130.756 235.675L130.097 235.543C129.569 234.357 128.645 232.512 128.777 232.248L128.513 231.721C127.986 231.194 128.645 232.907 129.173 233.83C130.492 236.729 128.645 234.225 128.909 235.543C128.513 234.752 128.513 234.357 128.381 233.83C128.381 233.698 128.513 233.698 128.777 234.357C128.909 233.698 127.458 231.984 127.986 231.984C128.381 232.248 128.381 233.302 128.777 233.302L127.854 231.062C127.722 231.194 127.722 231.589 127.722 231.984C127.722 232.907 127.326 233.039 127.062 233.039C126.798 233.039 126.534 232.775 126.534 232.775C125.479 233.434 124.423 234.093 123.236 234.621C122.972 235.016 122.84 234.884 122.972 237.257C123.104 237.784 123.368 237.52 123.368 238.311C123.236 237.388 123.368 236.993 123.632 236.993C123.764 237.784 123.5 237.388 123.632 237.652C123.632 238.047 123.764 238.443 123.632 238.443C124.159 239.629 124.687 239.234 124.423 237.652C124.819 238.443 124.555 238.97 124.555 239.761C125.611 240.156 126.139 239.893 126.93 239.761C126.402 238.311 126.666 238.838 126.534 237.784L126.798 238.311C126.666 238.047 126.402 236.993 126.138 236.729C126.93 237.652 126.007 234.621 126.007 233.961L126.27 234.752C126.402 234.489 126.534 234.489 126.534 234.093C127.458 235.28 126.27 234.489 127.194 236.202V235.807C127.458 236.466 127.854 237.784 127.854 238.311C127.722 236.993 128.645 238.575 128.645 237.52C128.909 238.311 128.777 239.102 128.777 239.234C128.909 239.234 129.041 238.575 129.305 239.365L128.909 238.311C129.041 238.047 129.305 239.234 129.701 239.893C130.36 239.365 128.381 236.598 128.645 235.807Z" fill="#3E240C"/>
<path d="M134.055 233.039C133.923 233.039 133.923 233.039 133.923 233.17C133.923 233.17 134.055 233.17 134.055 233.039Z" fill="#3E240C"/>
<path d="M134.319 235.411C134.45 235.543 134.45 235.675 134.582 235.807C134.582 235.675 134.45 235.543 134.319 235.411Z" fill="#3E240C"/>
<path d="M135.242 236.729C134.978 236.334 134.978 236.334 134.582 235.807C134.714 236.202 134.582 236.334 135.242 236.729Z" fill="#3E240C"/>
<path d="M145.665 218.013C145.401 217.881 145.005 217.749 144.741 217.749L145.005 218.013H145.665Z" fill="#3E240C"/>
<path d="M144.346 218.277L143.818 218.409L145.269 218.804C145.401 218.54 144.346 218.54 144.346 218.277Z" fill="#3E240C"/>
<path d="M143.422 218.671L143.026 218.54C143.158 218.671 143.29 218.671 143.422 218.671Z" fill="#3E240C"/>
<path d="M144.082 218.936L145.137 219.199L144.478 218.672L144.082 218.936C143.818 218.804 143.686 218.804 143.422 218.804L144.214 219.068C144.082 218.936 143.95 218.804 144.082 218.936Z" fill="#3E240C"/>
<path d="M141.971 219.331C142.367 219.331 142.894 219.595 143.422 219.727C143.95 219.595 142.367 219.199 142.894 219.199C143.686 219.727 143.554 219.199 144.214 219.199C143.158 219.068 142.499 219.068 142.103 219.199L142.762 219.331C142.63 219.463 142.235 219.199 141.971 219.331Z" fill="#3E240C"/>
<path d="M143.29 220.913L142.367 220.517C142.894 220.649 142.894 220.386 143.95 220.649C143.818 220.517 143.422 220.386 143.158 220.254C143.686 220.254 144.082 220.386 143.422 220.122C142.63 220.386 142.367 220.254 141.971 220.517C141.707 220.517 141.839 220.386 141.839 220.386L141.311 220.517C142.498 220.517 142.498 220.913 143.29 220.913Z" fill="#3E240C"/>
<path d="M142.367 221.045C142.367 220.781 141.443 220.517 140.783 220.386L141.443 221.045C141.575 220.913 141.443 220.649 142.367 221.045Z" fill="#3E240C"/>
<path d="M142.367 221.308C141.839 221.176 140.651 221.045 141.707 221.44C141.443 221.176 142.894 221.704 142.367 221.308Z" fill="#3E240C"/>
<path d="M140.915 222.363L141.707 222.231C143.026 222.626 142.103 222.494 142.63 222.89C143.026 222.626 142.499 222.626 141.839 222.099C141.971 221.967 141.311 221.704 141.047 221.44C141.839 222.231 138.672 221.176 140.915 222.363Z" fill="#3E240C"/>
<path d="M142.499 222.099L141.971 221.835L142.367 222.231L142.499 222.099Z" fill="#3E240C"/>
<path d="M139.2 222.758C137.617 222.363 139.86 223.549 139.2 223.417C139.068 223.417 138.936 223.285 138.804 223.153V223.417L138.409 223.285C139.332 223.681 139.596 223.944 140.124 224.34C141.179 224.472 139.068 223.813 140.124 224.076C140.519 224.34 141.047 224.603 141.443 224.735C141.047 224.472 140.519 224.208 140.124 223.944C140.124 223.813 140.519 224.076 140.915 224.208C140.519 223.812 139.2 223.285 139.596 223.153C140.388 223.285 140.783 223.681 140.519 223.285C139.068 222.89 140.783 223.153 139.992 222.626C140.388 222.494 141.311 222.758 141.707 222.89C140.651 222.494 139.728 221.967 139.464 221.704L140.256 222.363L138.936 221.967C139.728 222.626 139.596 222.626 139.2 222.758Z" fill="#3E240C"/>
<path d="M141.707 224.735C141.839 224.735 141.839 224.867 141.839 224.867C141.971 224.999 141.839 224.867 141.707 224.735Z" fill="#3E240C"/>
<path d="M142.367 223.153L142.499 223.285L142.894 223.417L142.367 223.153Z" fill="#3E240C"/>
<path d="M142.499 225.394C142.499 225.394 142.103 225.131 142.103 225.262L142.63 225.526L142.499 225.394Z" fill="#3E240C"/>
<path d="M141.575 225.262L140.783 224.999L141.311 225.262H141.575Z" fill="#3E240C"/>
<path d="M138.54 229.216C139.068 229.348 138.277 228.821 137.749 228.426C137.353 228.426 138.277 228.821 138.54 229.216Z" fill="#3E240C"/>
<path d="M137.353 232.38C137.881 232.643 137.353 231.853 137.485 231.853C137.089 231.589 137.221 231.984 137.353 232.38Z" fill="#3E240C"/>
<path d="M138.672 235.675C138.54 235.411 138.408 235.28 138.277 235.28L137.221 233.961C136.693 233.698 138.145 235.148 138.672 235.675Z" fill="#3E240C"/>
<path d="M137.485 236.993L137.221 236.334H137.089C136.693 235.807 136.561 235.543 136.298 235.016C136.429 235.543 136.693 236.202 137.485 236.993Z" fill="#3E240C"/>
<path d="M136.298 234.752V234.884C136.429 235.016 136.561 235.148 136.298 234.752Z" fill="#3E240C"/>
<path d="M136.166 235.016C136.166 235.016 136.166 235.148 136.298 235.148C136.298 235.016 136.298 235.016 136.166 235.016C136.166 234.752 136.034 234.752 136.166 235.016Z" fill="#3E240C"/>
<path d="M136.825 236.598L136.561 236.993L136.957 237.125C136.298 236.334 137.485 237.52 136.825 236.598Z" fill="#3E240C"/>
<path d="M134.318 237.388L133.659 236.598C133.263 236.598 134.187 238.575 133.131 237.388C133.527 237.784 133.527 238.443 134.055 238.575C133.659 237.652 133.923 237.257 134.318 237.388Z" fill="#3E240C"/>
<path d="M132.603 236.729C132.471 236.466 132.339 236.334 132.076 236.07C131.944 236.07 132.076 236.466 132.339 236.861C131.68 235.675 132.867 237.52 132.603 236.729Z" fill="#3E240C"/>
<path d="M131.416 237.52C131.416 237.52 131.548 237.257 131.284 237.125C131.152 237.257 131.68 238.311 131.944 238.97C132.471 239.365 131.812 237.916 131.416 237.52Z" fill="#3E240C"/>
<path d="M126.534 231.589C126.93 232.38 127.062 232.248 126.93 231.853C126.93 232.116 126.798 231.853 126.534 231.589Z" fill="#3E240C"/>
<path d="M129.569 238.179L129.701 238.311L129.305 236.993L129.569 238.179Z" fill="#3E240C"/>
<path d="M128.513 239.365L128.645 240.288L128.909 240.024L128.513 239.365Z" fill="#3E240C"/>
<path d="M128.118 239.234L127.854 239.365L128.118 239.629C128.381 239.893 128.118 239.365 128.118 239.234Z" fill="#3E240C"/>
<path d="M127.458 239.761C127.458 239.629 127.59 239.761 127.59 239.893V239.234L127.458 239.761Z" fill="#3E240C"/>
<path d="M122.708 235.28C122.576 234.357 122.576 235.016 122.576 234.752C122.576 235.016 122.84 236.202 122.708 235.28Z" fill="#3E240C"/>
</g>
</svg>
