<svg width="53" height="68" viewBox="0 0 53 68" fill="none" xmlns="http://www.w3.org/2000/svg">
<path d="M1.08084 66.8573C1.08084 66.8573 -1.18803 67.5544 5.02347 67.7868C11.235 68.0191 44.0778 68.1187 47.4254 67.7868C50.8101 67.4548 57.3935 67.654 48.6528 66.8573C39.912 66.0606 30.9481 66.5585 22.1702 66.0606C13.3923 65.5627 2.38266 66.0606 1.08084 66.8573Z" fill="#1B1C1E"/>
<path d="M43.7803 43.6206C43.7803 43.6206 46.5327 42.9899 46.6815 40.2679C46.6815 40.2679 49.5827 41.6289 49.6943 45.1808C49.8059 48.7327 46.7187 50.2597 46.7187 50.2597C46.7187 50.2597 42.5157 47.9028 43.7803 43.6206Z" fill="#FBAF5E"/>
<g opacity="0.62">
<path d="M46.0863 47.2719C46.1235 47.2719 46.1607 47.2719 46.1979 47.2719C46.1979 47.239 46.1979 47.239 46.0863 47.2719Z" fill="#3E240C"/>
<path d="M45.6771 45.9111L45.5656 45.9775C45.6027 45.9443 45.6399 45.9443 45.6771 45.9111Z" fill="#3E240C"/>
<path d="M47.537 46.8071C47.5742 46.8071 47.5742 46.7742 47.6114 46.7742C47.5742 46.8071 47.5742 46.8071 47.537 46.8071Z" fill="#3E240C"/>
<path d="M45.2681 45.4795C45.2309 45.4795 45.2309 45.4795 45.1937 45.4795C45.1937 45.5125 45.2309 45.5125 45.2681 45.4795Z" fill="#3E240C"/>
<path d="M46.2723 48.1352C46.6815 48.0688 46.3095 48.1684 46.7187 48.1352C46.6071 48.102 46.5699 48.102 46.7559 48.0688C46.979 48.0688 46.7558 48.1352 47.0906 48.102L46.9418 48.0688C47.1278 48.0356 47.3882 48.0356 47.351 48.0024C46.8674 48.0356 47.4998 47.8364 47.4254 47.8032H47.4625L47.6857 47.7036C47.6857 47.7036 47.6857 47.7036 47.7229 47.7036C47.6857 47.7036 47.6857 47.7036 47.6485 47.7036C47.8717 47.6372 48.0205 47.5708 47.9461 47.5045C47.6857 47.5376 47.7973 47.3385 47.5741 47.3717C47.6485 47.3717 47.6485 47.4049 47.6113 47.4381L47.2766 47.5045C47.2766 47.4381 47.5741 47.4381 47.351 47.4381C46.9046 47.5376 47.351 47.5044 47.3138 47.5376C47.2022 47.5376 47.1278 47.5376 47.0534 47.5376C47.0534 47.604 46.9046 47.7036 47.3882 47.6704C47.3138 47.7036 47.1278 47.7368 47.0534 47.7036C47.3138 47.7036 46.8302 47.77 47.0534 47.77C46.6443 47.8032 46.8302 47.7036 46.5699 47.7036C46.8674 47.5708 46.5699 47.5708 46.4583 47.5045C46.7559 47.4381 47.0162 47.4381 47.2022 47.3717C47.3882 47.2721 47.0162 47.3385 46.8302 47.3385C46.9046 47.2721 47.3138 47.2057 47.3138 47.1393H47.5369C47.9461 46.9733 47.351 47.1393 47.4254 47.0729C47.3138 47.1061 47.2022 47.1393 47.2394 47.1725C47.0906 47.2057 47.0162 47.2057 46.979 47.1725C46.7559 47.2057 46.5699 47.2721 46.6443 47.1725C46.9046 47.1393 46.8302 47.0729 46.9418 47.0397H47.0162C46.9046 47.0397 46.9418 46.9733 46.9046 46.9733H46.979C46.8674 46.9733 46.5699 47.0397 46.6071 47.0065C46.7187 46.9733 47.0906 46.9069 47.0162 46.9069C47.2022 46.8737 47.2394 46.9069 47.2022 46.9733C47.2394 46.9069 47.5369 46.8074 47.5741 46.8405C47.7973 46.7742 47.4626 46.8074 47.5369 46.7742C47.4626 46.8074 47.3882 46.8074 47.3138 46.8405C47.6113 46.741 47.3138 46.741 47.0906 46.8073H47.2766C47.0162 46.8737 46.8302 46.8737 46.7187 46.9401C47.0906 46.8074 46.4955 46.8737 46.793 46.741L46.6071 46.8405C46.6815 46.7078 46.1979 46.7742 46.0864 46.741C46.2351 46.7078 46.6443 46.575 46.5327 46.6746C46.5699 46.575 46.9418 46.5086 47.1278 46.3758C47.2394 46.243 46.7187 46.4754 46.5699 46.5086L46.6815 46.5418C46.1607 46.6746 46.6815 46.3426 46.3467 46.3758C46.4583 46.3094 46.4211 46.3758 46.4955 46.3426C46.7187 46.2098 46.4211 46.3094 46.3095 46.3426C46.3467 46.2762 46.4211 46.1766 46.7187 46.0771C46.7558 46.0107 46.5327 46.1766 46.4211 46.1766L46.4955 46.1434L46.1235 46.243C46.1979 46.1766 46.3095 46.0439 46.6071 45.8779C46.4955 45.8115 45.9376 46.1766 45.7888 46.1766C45.9004 46.0771 46.012 46.0771 46.1235 46.0107L46.0492 45.9775C46.3839 45.8447 46.2723 45.9443 46.6443 45.7783C46.2351 45.9111 46.4955 45.7783 46.1979 45.8447L46.1607 45.8779C45.9004 45.9775 46.012 45.8115 45.9376 45.8115C46.0864 45.7451 46.1607 45.7783 46.2351 45.7783C46.3467 45.6787 46.1235 45.6123 45.7888 45.7783C45.826 45.7119 45.9004 45.6123 46.0864 45.5459C46.0864 45.4463 45.6028 45.7783 45.64 45.6787L45.8632 45.5127C46.1235 45.214 45.4168 45.5791 45.6772 45.2804L45.3797 45.4795C45.4912 45.38 45.5284 45.3136 45.6028 45.214L45.7144 45.1808C45.9376 44.9816 45.454 45.3136 45.6028 45.1476C45.5284 45.214 45.3425 45.38 45.2681 45.4463C45.5656 45.4795 45.2681 45.8779 45.6772 45.8447C45.7144 45.8115 45.7516 45.7783 45.7888 45.7451C45.7144 45.8115 45.826 45.7783 45.6772 45.8779H45.64C45.7516 45.8779 45.3796 46.1102 45.4168 46.1434C45.64 46.0439 45.3797 46.2762 45.7144 46.0439L45.4912 46.1766C45.64 46.1103 45.7888 46.0107 45.8632 46.0107C45.8632 46.0439 45.7144 46.1434 45.6028 46.1434C45.5284 46.3094 45.64 46.409 45.826 46.4754L45.64 46.5086C45.5656 46.575 46.012 46.4754 45.5284 46.6414C45.7516 46.6082 45.454 46.8405 45.9376 46.6414C45.4912 46.8737 45.7888 46.8405 45.9004 46.9069C46.3095 46.741 46.0492 46.9401 46.2351 46.8737C45.9004 46.9733 45.8632 46.9069 45.6772 47.0065C46.1979 46.9069 45.3797 47.3385 46.2351 47.1061C46.1979 47.1393 46.1607 47.1393 46.1235 47.1393C46.1235 47.1393 45.9748 47.2057 45.9748 47.2389C46.1235 47.2057 46.1979 47.1393 46.2351 47.1725C46.1979 47.2057 45.9748 47.2721 45.8632 47.3053C46.0864 47.3053 46.1979 47.3717 46.5327 47.3053C46.4583 47.3385 46.2723 47.4049 46.1979 47.4049C46.4955 47.4381 46.1607 47.5045 46.3467 47.5708C46.3095 47.5376 45.9748 47.6372 46.1235 47.5376C45.64 47.6704 46.2351 47.6704 46.012 47.77L46.3467 47.7368C46.4211 47.77 46.1235 47.8364 45.9748 47.8032C45.7888 47.9028 45.9748 47.9028 46.012 47.9692C45.9748 47.9692 45.9004 47.9692 45.9376 47.9692V48.0356C46.012 48.0356 46.1979 48.0356 46.3839 48.0356C46.2723 48.2015 46.1607 48.2016 46.2723 48.1352Z" fill="#3E240C"/>
<path d="M47.6113 47.0729C47.537 47.1061 47.4998 47.1061 47.4998 47.1393C47.537 47.1061 47.5742 47.0729 47.6113 47.0729Z" fill="#3E240C"/>
<path d="M47.0534 49.0314C47.5369 49.0314 46.979 48.9651 47.0905 48.9319C47.1649 48.9651 47.4625 48.9651 47.5741 48.9651C46.9418 48.8987 47.6857 48.8987 47.5741 48.7991C47.7973 48.7991 47.7972 48.8323 48.0204 48.8655C47.8716 48.7991 47.7601 48.7327 47.4253 48.6995C47.4253 48.5999 47.5369 48.5335 47.4625 48.5003C47.6113 48.5667 47.7973 48.5003 48.132 48.5335C47.7229 48.4671 47.2393 48.3343 46.7186 48.3011C47.0905 48.268 47.1277 48.2348 47.4997 48.2348C47.7229 48.102 47.1278 48.2348 47.2393 48.1352L47.1649 48.2016C47.0534 48.1684 46.6814 48.2016 46.4211 48.2016L46.4954 48.3011C46.2351 48.3343 46.2723 48.268 46.1979 48.2348C45.8631 48.2348 45.9747 48.3011 45.7144 48.3343C45.9375 48.3343 45.8631 48.3675 45.9747 48.4007H45.8259C45.6772 48.4671 46.0491 48.4671 46.0491 48.5003C46.0119 48.5003 45.9747 48.5003 45.9375 48.5003C46.0863 48.5003 46.3095 48.5003 46.3467 48.5335V48.5003C46.6814 48.5335 46.9046 48.5999 47.2765 48.5335L47.1649 48.6663C46.793 48.6663 46.2351 48.6663 46.1607 48.5999H46.0119C45.7887 48.6331 46.3095 48.6995 46.607 48.6663C47.4997 48.6995 46.6442 48.8323 47.0162 48.9319C46.7558 48.9319 46.6814 48.8987 46.4954 48.8655C46.4583 48.8323 46.4583 48.8323 46.6814 48.8323C46.5326 48.7327 45.9003 48.8655 45.9747 48.7327C46.0863 48.6663 46.3839 48.7991 46.3839 48.6995L45.7144 48.6663C45.7516 48.6995 45.8631 48.7327 45.9375 48.7991C46.1607 48.8987 46.1607 48.9982 46.1235 49.0646C46.0863 49.131 45.9747 49.1642 45.9747 49.1642C46.0119 49.463 46.0491 49.7949 46.0119 50.1269C46.0863 50.2597 46.0491 50.2597 46.6442 50.492C46.793 50.5252 46.7558 50.4256 46.979 50.5252C46.7558 50.4588 46.6442 50.3593 46.6814 50.3261C46.9046 50.3925 46.793 50.3924 46.8302 50.3924H46.8674C46.979 50.4256 47.0534 50.4588 47.0534 50.492C47.4253 50.5252 47.3881 50.3593 46.9418 50.1933C47.2021 50.1933 47.3137 50.3261 47.4625 50.3924C47.6857 50.2265 47.6857 50.0605 47.7601 49.8613C47.3509 49.7949 47.4997 49.7949 47.2021 49.7285H47.3509C47.2765 49.7285 46.979 49.6622 46.9046 49.6953C47.2765 49.629 46.3467 49.4962 46.1607 49.3966L46.3839 49.4298C46.3467 49.3634 46.3467 49.3634 46.2351 49.297C46.6814 49.2306 46.3095 49.3966 46.8302 49.3966L46.7558 49.3634C46.979 49.3966 47.3509 49.463 47.4997 49.4962C47.1649 49.3634 47.6485 49.3634 47.3881 49.2306C47.6485 49.2638 47.8344 49.3634 47.8344 49.3966C47.8716 49.3634 47.6857 49.2638 47.9088 49.297L47.6113 49.2638C47.5741 49.1974 47.9088 49.297 48.0948 49.2638C48.2064 49.0646 47.2393 49.1642 47.0534 49.0314Z" fill="#3E240C"/>
<path d="M47.0906 47.5045C47.0534 47.5374 47.0906 47.5374 47.1278 47.5374C47.1278 47.5374 47.1278 47.5045 47.0906 47.5045Z" fill="#3E240C"/>
<path d="M48.1692 47.6704C48.0205 47.7036 48.0204 47.6704 47.8345 47.7036C47.9461 47.7036 47.9461 47.77 48.1692 47.6704Z" fill="#3E240C"/>
<path d="M44.8217 43.1559C44.7473 43.2223 44.6729 43.2555 44.6357 43.3218L44.7473 43.2887L44.8217 43.1559Z" fill="#3E240C"/>
<path d="M44.7102 43.4878L44.673 43.6206L44.9705 43.3551C44.9333 43.2887 44.7846 43.521 44.7102 43.4878Z" fill="#3E240C"/>
<path d="M44.7101 43.7534L44.6357 43.8198C44.6729 43.7866 44.7101 43.7534 44.7101 43.7534Z" fill="#3E240C"/>
<path d="M44.8218 43.6206L45.045 43.4214L44.8218 43.521V43.6206C44.7474 43.6538 44.7474 43.7202 44.7102 43.7534L44.859 43.6206C44.859 43.6206 44.8218 43.6538 44.8218 43.6206Z" fill="#3E240C"/>
<path d="M44.8961 43.6538C44.8961 43.6206 44.9333 43.6206 44.9333 43.5874C44.9333 43.6206 44.8961 43.6538 44.8961 43.6538Z" fill="#3E240C"/>
<path d="M44.673 44.1517C44.7474 44.0522 44.859 43.9858 44.9706 43.8862C45.0078 43.7534 44.7102 44.0854 44.7474 43.9526C44.9706 43.853 44.8218 43.8198 44.9334 43.687C44.7474 43.853 44.6358 44.019 44.673 44.1517L44.7846 43.9858C44.7846 44.019 44.7102 44.0853 44.673 44.1517Z" fill="#3E240C"/>
<path d="M45.2308 44.019L45.0077 44.1849C45.0821 44.0853 45.0449 44.0521 45.2308 43.853C45.1936 43.853 45.0821 43.9526 45.0077 43.9858C45.0821 43.8862 45.1565 43.7866 45.0077 43.9194C44.9705 44.1185 44.8961 44.1517 44.9333 44.2845C44.8961 44.3177 44.8961 44.3177 44.8961 44.2845L44.8589 44.4173C45.0449 44.1849 45.1564 44.2181 45.2308 44.019Z" fill="#3E240C"/>
<path d="M45.1565 44.2513C45.1193 44.2181 44.8961 44.3841 44.7845 44.5169L45.0077 44.4505C45.0077 44.4173 44.9705 44.4173 45.1565 44.2513Z" fill="#3E240C"/>
<path d="M45.2308 44.2845C45.1564 44.3841 44.9333 44.6165 45.1565 44.4505C45.0821 44.4505 45.4168 44.1849 45.2308 44.2845Z" fill="#3E240C"/>
<path d="M45.3054 44.716L45.3798 44.5169C45.6401 44.2513 45.4913 44.4837 45.6401 44.3841C45.6401 44.2845 45.5657 44.3841 45.3426 44.4837C45.3426 44.4505 45.1566 44.5501 45.0822 44.5833C45.3798 44.5169 44.7475 45.0812 45.3054 44.716Z" fill="#3E240C"/>
<path d="M45.4168 44.3509L45.3052 44.4505L45.4168 44.3841V44.3509Z" fill="#3E240C"/>
<path d="M45.1937 45.1476C44.8962 45.4464 45.4541 45.0812 45.3797 45.2472C45.3425 45.2472 45.3425 45.2804 45.2681 45.3136H45.3425L45.2681 45.38C45.4541 45.214 45.6029 45.214 45.7888 45.1144C45.9748 44.9152 45.5285 45.2804 45.7145 45.048C45.8261 44.9816 45.9748 44.882 46.0492 44.8488C45.9376 44.882 45.7889 44.9816 45.6773 45.048C45.6401 45.048 45.7517 44.9484 45.826 44.882C45.6773 44.9484 45.3797 45.1808 45.4169 45.0812C45.5657 44.9152 45.7145 44.882 45.6029 44.882C45.3053 45.1476 45.6029 44.7825 45.3797 44.9484C45.4169 44.8488 45.5657 44.6829 45.6773 44.5833C45.4169 44.7825 45.1937 44.9152 45.0822 44.9484L45.3425 44.8488L45.0822 45.1144C45.1937 45.0148 45.1937 45.0812 45.1937 45.1476Z" fill="#3E240C"/>
<path d="M46.012 44.8486C46.0492 44.8486 46.0492 44.8156 46.0864 44.8156C46.0864 44.8156 46.0492 44.8156 46.012 44.8486Z" fill="#3E240C"/>
<path d="M45.6771 44.5169L45.7515 44.4837L45.8259 44.3841L45.6771 44.5169Z" fill="#3E240C"/>
<path d="M46.2724 44.716C46.2724 44.6829 46.1608 44.7824 46.1608 44.7824L46.3096 44.6829L46.2724 44.716Z" fill="#3E240C"/>
<path d="M46.0863 44.9152L45.9375 45.048L46.0863 44.9816V44.9152Z" fill="#3E240C"/>
<path d="M46.6815 46.0439C46.7931 45.9443 46.5327 46.0771 46.3839 46.1435C46.3839 46.243 46.6071 46.0439 46.6815 46.0439Z" fill="#3E240C"/>
<path d="M47.351 46.6746C47.4998 46.575 47.2395 46.6082 47.2395 46.575C47.1279 46.6414 47.2395 46.6746 47.351 46.6746Z" fill="#3E240C"/>
<path d="M48.3552 46.7742C48.2808 46.7742 48.2064 46.7742 48.2064 46.8073L47.7228 46.8737C47.5741 47.0065 48.1692 46.8405 48.3552 46.7742Z" fill="#3E240C"/>
<path d="M48.5412 47.2057L48.3553 47.1725V47.2057C48.1693 47.2389 48.0577 47.2389 47.9089 47.2389C48.0205 47.2721 48.2065 47.2721 48.5412 47.2057Z" fill="#3E240C"/>
<path d="M47.7974 47.2052C47.7974 47.2052 47.8346 47.2052 47.7974 47.2052C47.9089 47.2052 47.9461 47.1732 47.7974 47.2052Z" fill="#3E240C"/>
<path d="M47.8345 47.2384C47.8716 47.2384 47.8716 47.2384 47.8716 47.2384C47.8716 47.2384 47.8716 47.2064 47.8345 47.2384C47.7973 47.2384 47.7601 47.2384 47.8345 47.2384Z" fill="#3E240C"/>
<path d="M48.318 47.3053L48.3924 47.4049L48.4668 47.3385C48.2064 47.3717 48.6527 47.2389 48.318 47.3053Z" fill="#3E240C"/>
<path d="M48.2065 47.936L47.9089 47.9692C47.8717 48.0356 48.4668 48.0688 48.0205 48.1684C48.2065 48.1352 48.3552 48.2016 48.4296 48.102C48.1693 48.102 48.1321 48.0024 48.2065 47.936Z" fill="#3E240C"/>
<path d="M47.8345 48.2679C47.7601 48.2679 47.6857 48.2679 47.6113 48.3011C47.5741 48.3343 47.7229 48.3343 47.8345 48.3343C47.4253 48.3343 48.0576 48.2679 47.8345 48.2679Z" fill="#3E240C"/>
<path d="M47.8717 48.5999C47.8717 48.5667 47.8345 48.5667 47.7601 48.5999C47.7973 48.6663 48.0949 48.6331 48.2809 48.6663C48.4668 48.5667 48.0205 48.5335 47.8717 48.5999Z" fill="#3E240C"/>
<path d="M45.7516 48.998C46.0119 48.998 45.9748 48.9651 45.8632 48.9651C45.9376 48.9651 45.8632 48.998 45.7516 48.998Z" fill="#3E240C"/>
<path d="M47.7973 49.0978L47.8345 49.0646L47.4625 49.0314L47.7973 49.0978Z" fill="#3E240C"/>
<path d="M47.946 49.463L48.2064 49.5294L48.1692 49.463H47.946Z" fill="#3E240C"/>
<path d="M47.8716 49.5294V49.5958H47.9832C48.0576 49.5626 47.8716 49.5626 47.8716 49.5294Z" fill="#3E240C"/>
<path d="M47.9089 49.7285C47.8717 49.7285 47.9461 49.7285 47.9833 49.7285L47.8345 49.6622L47.9089 49.7285Z" fill="#3E240C"/>
<path d="M46.1978 50.2929C45.9747 50.2265 46.0863 50.2929 46.0491 50.2597C46.0863 50.2929 46.421 50.3592 46.1978 50.2929Z" fill="#3E240C"/>
</g>
<path d="M3.57299 30.5085C3.57299 30.5085 2.97787 44.8156 4.35407 60.8822C4.35407 60.8822 2.04801 63.4382 3.38702 66.8573C3.38702 66.8573 11.6814 66.8573 12.7601 66.8573C12.7601 66.8573 14.9917 63.1062 15.3637 57.961H22.7282C22.7282 57.961 25.4806 61.4797 27.4147 64.434C28.0099 65.3303 28.3074 66.5254 28.7538 66.8573C28.7538 66.8573 44.7102 66.8573 44.9706 66.8573C45.231 66.8573 47.9834 58.5585 47.3883 51.3551C47.3511 50.99 47.3139 50.6248 47.2767 50.2597C47.0535 48.7327 46.6444 47.4713 46.1236 46.3426C45.6029 45.2804 45.0078 44.3509 44.2639 43.4878C42.553 41.4297 40.3213 39.8695 38.0896 37.9442C34.7793 35.0894 32.2128 29.2803 32.2128 29.2803C32.2128 29.2803 33.2543 27.3549 22.0587 26.8902C10.8631 26.4587 4.13091 27.8861 3.57299 30.5085Z" fill="#FBAF5E"/>
<path d="M22.7282 57.961L21.6495 56.5004" stroke="#1B1C1E" stroke-width="1.2604" stroke-miterlimit="10" stroke-linecap="round" stroke-linejoin="round"/>
<path d="M29.7579 44.2181C27.5635 48.2347 25.183 48.6663 25.183 48.6663C22.3934 51.6539 21.0916 51.7203 21.0916 51.7203C19.6038 53.4796 16.7398 55.239 16.7398 55.239C14.5825 54.5087 12.4996 51.5211 12.4996 51.5211C10.6399 51.2223 9.00334 47.8696 9.00334 47.8696C5.39546 46.0439 3.87048 41.2637 3.38695 39.2388C3.34976 33.9276 3.49854 30.5417 3.49854 30.5417C4.09365 27.9524 10.7887 26.4918 21.9843 26.9566C33.1798 27.4213 32.1384 29.3466 32.1384 29.3466C32.1384 29.3466 32.5475 30.2429 33.217 31.5043C35.7091 40.0687 29.7579 44.2181 29.7579 44.2181Z" fill="#FFF0DD"/>
<path d="M32.1756 29.2803C32.8079 30.7408 32.4732 32.4006 31.2458 33.5293C28.233 36.3177 22.1703 40.8322 15.1405 39.9359C11.4582 39.4712 8.74301 38.1766 6.84608 36.8488C4.6516 35.3218 3.46137 32.9649 3.53576 30.4753C4.13087 27.8861 10.8259 26.4255 22.0215 26.8902C33.2171 27.3549 32.1756 29.2803 32.1756 29.2803Z" fill="#D1493B"/>
<path d="M18.7483 38.7741C18.7483 37.1807 17.2977 35.9193 15.5496 35.9193C13.8014 35.9193 12.3508 37.2139 12.3508 38.7741C12.3508 39.5044 12.6484 40.1683 13.1691 40.6662C13.7642 41.2638 14.6197 41.6289 15.5496 41.6289C17.2977 41.6289 18.7483 40.3675 18.7483 38.7741Z" fill="#FFAE1F"/>
<path d="M13.132 40.6662C13.7271 41.2637 14.5825 41.6289 15.5124 41.6289C17.2978 41.6289 18.7112 40.3343 18.7112 38.7741" stroke="#1B1C1E" stroke-width="1.2604" stroke-miterlimit="10" stroke-linecap="round" stroke-linejoin="round"/>
<path d="M23.1745 10.9233C23.1745 10.9233 26.8568 5.0809 28.233 0.798707C28.4933 0.00202022 29.572 -0.263542 30.2787 0.300778C32.9567 2.52486 37.4572 8.23445 31.2829 18.4918C31.3201 18.4918 22.7654 15.637 23.1745 10.9233Z" fill="#FBAF5E"/>
<path d="M31.0598 16.4669C30.5019 15.4046 29.7952 14.3424 28.7909 13.4461C27.6751 12.4503 27.4147 10.9233 28.0098 9.62865C29.0513 7.43776 29.944 4.81534 30.3531 3.55392C30.4647 3.22197 30.9482 3.15557 31.1714 3.45433C35.4488 8.93155 31.0598 16.4669 31.0598 16.4669Z" fill="#BC763C"/>
<path d="M31.0597 16.4669C30.6878 17.164 24.5506 14.9731 26.5592 12.2511C26.5963 12.1847 26.6707 12.0851 26.7451 12.0187C28.8652 13.081 30.167 14.7407 31.0597 16.4669Z" fill="#BC763C"/>
<path d="M34.6676 26.2595C32.2872 30.2097 27.9354 33.1309 23.9928 35.1558C18.7111 37.8446 12.1277 37.3799 7.44118 33.9276C1.15528 29.3134 -0.481278 24.6329 0.113836 24.2678C0.374198 24.1018 0.820533 23.3383 1.30406 22.4088C1.30406 22.4088 3.1266 22.2096 6.47412 23.8694C9.78444 25.496 12.2393 24.2346 12.8716 18.7905C13.5783 12.3506 14.8057 10.5913 14.8057 10.5913C15.9587 10.4917 17.3721 10.4253 18.8599 10.4917C18.8599 10.4917 16.2935 19.6536 19.2319 23.637C21.2776 26.4254 25.555 24.5665 28.1958 23.3051C30.7994 22.0769 32.8823 21.9773 32.8823 21.9773C32.9567 22.1764 32.9939 22.3756 33.0311 22.5084C33.589 24.2677 34.6676 26.2595 34.6676 26.2595Z" fill="#FFF0DD"/>
<path d="M12.8716 10.8568C13.3923 10.7241 14.0246 10.6577 14.8057 10.5581C14.8057 10.5581 13.5783 12.3174 12.8716 18.7573C12.2765 24.1681 9.82165 25.4628 6.47413 23.8362C3.16381 22.1764 1.30408 22.3756 1.30408 22.3756C2.27114 20.4171 3.38698 17.6619 3.38698 17.6619C-1.44832 8.06843 3.64734 2.52482 6.66011 0.267541C7.44119 -0.296779 8.63142 0.101563 8.7802 0.997836C9.67287 6.20949 12.8716 10.8568 12.8716 10.8568Z" fill="#FBAF5E"/>
<path d="M32.8079 21.9441C32.8079 21.9441 30.725 22.0437 28.1214 23.2719C25.5178 24.5001 21.2404 26.3923 19.1575 23.6039C16.2563 19.6204 18.7855 10.4585 18.7855 10.4585C20.98 10.5249 23.2861 10.7905 25.1458 11.388C25.555 11.5208 25.9269 11.6536 26.2989 11.8196C26.4104 11.8859 26.5592 11.9191 26.6708 11.9855C28.7909 13.0478 30.1299 14.7075 30.9854 16.4337C31.2457 16.8984 31.4317 17.3632 31.6177 17.8279C32.2872 19.4877 32.5847 21.0146 32.8079 21.9441Z" fill="#FBAF5E"/>
<path d="M16.3306 26.7574C15.5124 27.3549 14.3593 27.3217 13.5782 26.691C12.8715 26.1267 12.0905 25.2968 12.0905 24.3674C12.0905 23.3051 17.5581 23.2719 17.7068 24.3674C17.8928 25.2968 17.1117 26.1599 16.3306 26.7574Z" fill="#1B1C1E"/>
<path d="M10.5655 21.8777C10.5655 22.4088 10.1192 23.0063 9.44969 22.9731C8.743 22.9067 8.44543 22.3424 8.44543 21.8445C8.44543 21.3134 8.96616 20.915 9.52408 20.915C10.1192 20.915 10.5655 21.3466 10.5655 21.8777Z" fill="#1B1C1E"/>
<path d="M21.9843 22.1765C21.9843 22.7076 21.5008 23.2387 20.9429 23.2055C20.3478 23.2055 19.8642 22.6412 19.9014 22.1101C19.9014 21.579 20.4222 21.1806 20.9801 21.1806C21.538 21.2138 21.9843 21.6453 21.9843 22.1765Z" fill="#1B1C1E"/>
<path d="M7.18086 13.2469C5.80466 14.276 4.76321 15.5374 4.1309 16.4669C-0.295262 9.09753 6.06502 0.765517 6.28819 4.01865C6.39977 5.71161 7.32964 7.9025 8.14792 9.59546C8.81742 10.8569 8.40828 12.3507 7.18086 13.2469Z" fill="#BC763C"/>
<g opacity="0.62">
<path d="M13.1319 57.463C13.1319 57.4962 13.0947 57.5294 13.0947 57.5626C13.0947 57.5626 13.1319 57.5294 13.1319 57.463Z" fill="#3E240C"/>
<path d="M11.7185 56.8655L11.7929 56.7659C11.7929 56.7991 11.7557 56.8323 11.7185 56.8655Z" fill="#3E240C"/>
<path d="M12.8344 58.2929C12.8344 58.3261 12.8344 58.3593 12.7972 58.4589L12.8344 58.2929Z" fill="#3E240C"/>
<path d="M12.4253 58.6581C12.4253 58.6913 12.3881 58.6913 12.3881 58.7245C12.3881 58.6913 12.3881 58.6913 12.4253 58.6581Z" fill="#3E240C"/>
<path d="M14.5082 57.5956C14.5082 57.5626 14.5082 57.5626 14.5082 57.5626C14.5454 57.5626 14.5082 57.5626 14.5082 57.5956Z" fill="#3E240C"/>
<path d="M14.4709 57.961C14.5081 57.9939 14.4709 57.9939 14.4709 57.961V57.961Z" fill="#3E240C"/>
<path d="M14.5453 57.4298C14.5453 57.463 14.5453 57.4962 14.5453 57.5294C14.5453 57.4962 14.5081 57.4962 14.5453 57.4298Z" fill="#3E240C"/>
<path d="M13.1692 57.4298C13.1692 57.463 13.132 57.463 13.132 57.4962C13.1692 57.463 13.1692 57.4298 13.1692 57.4298Z" fill="#3E240C"/>
<path d="M11.3466 56.434C11.3466 56.4008 11.3466 56.4008 11.3466 56.3676C11.3838 56.3676 11.3838 56.4008 11.3466 56.434Z" fill="#3E240C"/>
<path d="M14.0618 57.7618C13.9131 58.1269 14.099 57.795 13.9874 58.1269C13.9874 58.0274 13.9874 57.9942 13.9131 58.1601C13.8759 58.3593 13.9874 58.1601 13.8759 58.4589V58.3261C13.8015 58.4589 13.7643 58.7245 13.7271 58.6913C13.8387 58.2597 13.5411 58.824 13.5039 58.7245V58.7577L13.3551 58.9236C13.3551 58.9236 13.3551 58.9236 13.3551 58.9568C13.3551 58.9236 13.3551 58.9236 13.3923 58.8904C13.2807 59.0896 13.1692 59.1892 13.132 59.1228C13.2064 58.8904 12.9832 58.99 13.0204 58.7577C13.0204 58.824 13.0204 58.824 13.0948 58.7908L13.2064 58.5253C13.1692 58.5253 13.0948 58.7909 13.0948 58.5917C13.2807 58.2265 13.1692 58.6249 13.2436 58.5917C13.2808 58.4921 13.2807 58.4257 13.2807 58.3593C13.3551 58.3593 13.4667 58.2597 13.3923 58.6581C13.4295 58.5917 13.5039 58.4257 13.5039 58.3925C13.4667 58.6249 13.6155 58.1933 13.5783 58.3925C13.6899 58.0274 13.5411 58.1601 13.5783 57.961C13.3923 58.2265 13.4295 57.9278 13.3923 57.8614C13.2807 58.1269 13.2064 58.3593 13.132 58.4921C12.9832 58.6249 13.132 58.3261 13.1692 58.1601C13.0576 58.2265 12.946 58.5585 12.8716 58.5585L12.8344 58.7245C12.6112 59.0564 12.8716 58.5585 12.7972 58.6249C12.8716 58.5253 12.9088 58.4589 12.946 58.4921C13.0204 58.3593 13.0204 58.2929 13.0204 58.2929C13.0948 58.1269 13.1692 57.9278 13.0948 57.9942C13.0204 58.2265 12.9832 58.1269 12.9088 58.2265V58.2597C12.9088 58.1601 12.8716 58.1933 12.8716 58.1269L12.8344 58.1933C12.8716 58.0937 12.9832 57.8282 12.9088 57.8946C12.8344 57.9942 12.7228 58.2929 12.7228 58.2265C12.6484 58.3925 12.6856 58.4257 12.76 58.3925C12.6856 58.4257 12.4997 58.6581 12.5741 58.6913C12.4625 58.8904 12.5741 58.5917 12.4997 58.6581C12.5369 58.5917 12.5741 58.5253 12.6112 58.4589C12.4625 58.7245 12.4997 58.4257 12.6112 58.2597L12.5741 58.4257C12.7228 58.2265 12.7228 58.0605 12.8344 57.961C12.6112 58.2597 12.7972 57.7286 12.6112 57.9942L12.7228 57.8282C12.574 57.8946 12.7228 57.463 12.7228 57.3303C12.6856 57.4298 12.4253 57.795 12.5741 57.6954C12.4253 57.6954 12.3137 58.0274 12.1649 58.1601C12.0161 58.2265 12.3509 57.8282 12.4253 57.6954V57.795C12.6484 57.3634 12.2021 57.7618 12.2765 57.463C12.2021 57.5626 12.2393 57.5294 12.2393 57.5626C12.0533 57.7286 12.2393 57.4962 12.2765 57.3967C12.2021 57.3967 12.0905 57.463 11.9045 57.6954C11.793 57.7286 12.0161 57.5626 12.0533 57.463L12.0161 57.4962L12.2021 57.1975C12.0905 57.2639 11.9417 57.3303 11.7186 57.5294C11.6814 57.4298 12.1649 56.9983 12.2021 56.8655C12.0533 56.9651 12.0533 57.0315 11.9789 57.1311L11.9417 57.0647C11.7186 57.3303 11.8674 57.2307 11.607 57.5294C11.8302 57.1975 11.607 57.3966 11.7558 57.1311L11.793 57.0979C11.9789 56.8655 11.7558 56.9651 11.7558 56.8987C11.6442 57.0315 11.6814 57.0647 11.6442 57.1311C11.4954 57.1975 11.4954 57.0315 11.7186 56.7327C11.6442 56.7659 11.4954 56.7991 11.421 56.9319C11.3094 56.8987 11.793 56.5668 11.6442 56.5668L11.421 56.7659C11.0491 56.9651 11.5698 56.4008 11.1979 56.5668L11.4582 56.3344C11.3466 56.4008 11.235 56.434 11.1235 56.5004L11.0491 56.6C10.7887 56.7327 11.235 56.4008 11.0491 56.5004C11.1235 56.434 11.3466 56.3344 11.421 56.268C11.421 56.5336 11.9045 56.3344 11.793 56.6995C11.7558 56.7327 11.7186 56.7659 11.6814 56.7991C11.7558 56.7659 11.7186 56.8323 11.8674 56.6995V56.6664C11.8674 56.7659 12.2021 56.5004 12.2021 56.5004C12.0533 56.6664 12.3509 56.5004 12.0533 56.7659L12.2393 56.6C12.1649 56.6996 12.0161 56.8323 11.9789 56.8987C12.0161 56.8987 12.1277 56.7991 12.1649 56.6995C12.3509 56.6664 12.4625 56.7991 12.4997 56.9651L12.5741 56.7991C12.6484 56.7327 12.4625 57.0979 12.7228 56.7327C12.6484 56.8987 12.946 56.6996 12.6484 57.0979C12.9832 56.7327 12.9088 57.0315 12.946 57.1311C12.6856 57.463 12.946 57.2639 12.8716 57.4298C13.0576 57.1643 12.9832 57.1311 13.0948 56.9651C12.9088 57.4298 13.5039 56.7659 13.0948 57.463C13.132 57.4298 13.132 57.3967 13.1692 57.3967C13.1692 57.3967 13.2807 57.2971 13.3179 57.2639C13.2436 57.3967 13.2064 57.4298 13.2064 57.4962C13.2436 57.4962 13.3551 57.2971 13.3923 57.1975C13.3551 57.3966 13.4295 57.4962 13.2807 57.795C13.3551 57.7286 13.4295 57.5626 13.4667 57.4962C13.4667 57.7618 13.5783 57.4962 13.6155 57.6622C13.5783 57.629 13.7271 57.3634 13.6527 57.463C13.8759 57.0647 13.7643 57.5958 13.9503 57.3967L13.8759 57.6622C13.9131 57.7286 14.0246 57.463 14.0246 57.3635C14.1734 57.2307 14.1362 57.3967 14.2106 57.4298C14.2106 57.3967 14.2478 57.3303 14.2106 57.3635H14.285C14.285 57.4298 14.2478 57.5958 14.1734 57.7618C14.1362 57.7618 14.1734 57.6622 14.0618 57.7618Z" fill="#3E240C"/>
<path d="M12.6857 58.7577C12.7229 58.6913 12.7601 58.6581 12.7601 58.6581C12.7229 58.7245 12.6857 58.7577 12.6857 58.7577Z" fill="#3E240C"/>
<path d="M14.9173 58.6249C14.8429 59.0564 14.8801 58.5585 14.8057 58.6581C14.8429 58.7245 14.7685 58.99 14.7685 59.0896C14.8057 58.5253 14.6941 59.1892 14.5825 59.0564C14.5453 59.2224 14.5825 59.2888 14.5453 59.4879C14.5081 59.3552 14.4337 59.2556 14.4709 58.9236C14.3594 58.8904 14.285 58.99 14.2106 58.9236C14.2478 59.0564 14.1362 59.2224 14.1362 59.5211C14.1362 59.156 14.099 58.6913 14.1362 58.2265C14.0246 58.5585 14.0246 58.5917 13.913 58.8904C13.727 59.0896 13.9874 58.5585 13.8386 58.6249L13.913 58.5917C13.913 58.4921 13.9874 58.1601 14.0618 57.9278L14.1734 57.9942C14.2478 57.7618 14.1734 57.795 14.1734 57.7286C14.2478 57.463 14.285 57.5626 14.3594 57.3303C14.3222 57.5294 14.3594 57.463 14.3594 57.5626L14.3965 57.4298C14.4709 57.2971 14.4337 57.629 14.4709 57.629C14.4709 57.5958 14.5081 57.5626 14.5081 57.5626C14.4709 57.6954 14.4709 57.8614 14.4709 57.9278V57.8946C14.4337 58.1933 14.5081 58.3925 14.3594 58.7245L14.5081 58.6581C14.5825 58.3261 14.6569 57.8282 14.6197 57.7618L14.6569 57.629C14.7313 57.463 14.7313 57.8946 14.6197 58.1933C14.5081 58.99 14.8057 58.2597 14.8429 58.5917C14.8801 58.3925 14.8429 58.2929 14.8429 58.1269C14.8057 58.0937 14.8057 58.0938 14.7685 58.2597C14.6941 58.1269 14.9173 57.5958 14.8057 57.629C14.7313 57.7286 14.8057 57.9942 14.6941 57.9942L14.7685 57.3966C14.8057 57.4298 14.8429 57.5294 14.8801 57.5958C14.9545 57.795 15.066 57.8282 15.1404 57.795C15.2148 57.7618 15.252 57.6954 15.252 57.6954C15.5868 57.795 15.9587 57.8614 16.2935 57.8946C16.4051 57.961 16.4423 57.9278 16.591 58.5253C16.591 58.6581 16.5166 58.5917 16.5538 58.7908C16.5166 58.5585 16.4422 58.4589 16.3679 58.4921C16.3679 58.7245 16.4422 58.5917 16.4422 58.6581C16.4794 58.7577 16.4794 58.8572 16.5166 58.8572C16.4794 59.1892 16.2935 59.1228 16.2191 58.7245C16.1819 58.9568 16.2935 59.0564 16.3307 59.2224C16.1075 59.3884 15.9215 59.3884 15.6984 59.3884C15.6984 58.99 15.6612 59.156 15.6612 58.8904L15.624 59.0232C15.624 58.9568 15.624 58.6913 15.6612 58.6249C15.5124 58.9236 15.5496 58.0938 15.4752 57.9278V58.1269C15.4008 58.0937 15.4008 58.0937 15.3636 57.961C15.2148 58.3261 15.438 58.0274 15.3636 58.5253L15.3264 58.4589C15.3264 58.6581 15.3264 58.99 15.3636 59.1228C15.2892 58.7908 15.1776 59.2556 15.066 58.99C15.066 59.2224 15.1404 59.3884 15.1776 59.4216C15.1404 59.4548 15.0661 59.2888 15.0289 59.4879L15.066 59.2224C14.9917 59.1892 15.0289 59.4879 14.9917 59.6539C14.7685 59.6539 15.066 58.7908 14.9173 58.6249Z" fill="#3E240C"/>
<path d="M13.2435 58.3925C13.2807 58.3925 13.2807 58.3925 13.2807 58.4255L13.2435 58.3925Z" fill="#3E240C"/>
<path d="M13.3552 58.99C13.3552 59.0232 13.318 59.0564 13.318 59.0896C13.318 59.0564 13.3552 59.0232 13.3552 58.99Z" fill="#3E240C"/>
<path d="M13.2435 59.3552C13.3179 59.2556 13.2807 59.2224 13.3179 59.0896C13.3179 59.1892 13.3923 59.1892 13.2435 59.3552Z" fill="#3E240C"/>
<path d="M8.85461 55.6373C8.929 55.6041 9.0034 55.5045 9.07778 55.5045L9.00339 55.6041L8.85461 55.6373Z" fill="#3E240C"/>
<path d="M9.22653 55.6041H9.3753L9.04056 55.8033C8.96617 55.7369 9.26372 55.6705 9.22653 55.6041Z" fill="#3E240C"/>
<path d="M9.52405 55.6373L9.59844 55.5709C9.56124 55.6041 9.56124 55.6373 9.52405 55.6373Z" fill="#3E240C"/>
<path d="M9.37535 55.7369L9.11499 55.9029L9.26377 55.7369H9.37535C9.44974 55.6705 9.48694 55.6705 9.52413 55.6705L9.33816 55.8033C9.37535 55.7369 9.41255 55.7037 9.37535 55.7369Z" fill="#3E240C"/>
<path d="M9.37541 55.8033C9.33822 55.8033 9.33822 55.8362 9.30103 55.8362C9.33822 55.8033 9.37541 55.8033 9.37541 55.8033Z" fill="#3E240C"/>
<path d="M9.97039 55.6705C9.85881 55.7037 9.74723 55.8033 9.63565 55.8697C9.48687 55.8697 9.896 55.6705 9.74722 55.6705C9.59845 55.8365 9.56125 55.7369 9.41248 55.7701C9.67284 55.6705 9.85881 55.6041 9.97039 55.6041L9.82162 55.7037C9.78442 55.7369 9.89601 55.6705 9.97039 55.6705Z" fill="#3E240C"/>
<path d="M9.74725 56.1352L9.97042 55.9692C9.85884 56.0356 9.82164 55.9693 9.56128 56.102C9.59847 56.0688 9.67286 56.0024 9.74725 55.9361C9.59847 56.0024 9.48689 56.0356 9.67286 55.9029C9.89603 55.9029 9.93323 55.8365 10.082 55.9029C10.1192 55.8697 10.1192 55.8697 10.1192 55.8697L10.3052 55.8365C9.93323 56.0024 9.97042 56.102 9.74725 56.1352Z" fill="#3E240C"/>
<path d="M9.97041 56.1352C9.93321 56.0688 10.1564 55.936 10.3424 55.8697L10.2308 56.0688C10.1936 56.0356 10.1936 55.9692 9.97041 56.1352Z" fill="#3E240C"/>
<path d="M10.0447 56.1684C10.1935 56.102 10.4911 55.9692 10.2679 56.1352C10.2307 56.102 9.89595 56.3344 10.0447 56.1684Z" fill="#3E240C"/>
<path d="M10.4911 56.3344L10.2679 56.3676C9.93317 56.5336 10.1935 56.4672 10.082 56.6C9.97037 56.5668 10.0819 56.5336 10.2307 56.3676C10.1935 56.3676 10.3423 56.2348 10.4167 56.1684C10.2307 56.3676 11.0118 55.9029 10.4911 56.3344Z" fill="#3E240C"/>
<path d="M10.0448 56.3676L10.1564 56.3012L10.1192 56.4008L10.0448 56.3676Z" fill="#3E240C"/>
<path d="M10.9746 56.3012C11.3466 56.102 10.8631 56.5336 11.049 56.4672C11.049 56.434 11.0862 56.434 11.1234 56.4008V56.4672L11.1978 56.4008C10.9746 56.5668 10.9374 56.6664 10.8259 56.7991C10.5655 56.9319 11.049 56.6 10.7887 56.7327C10.7143 56.7991 10.5655 56.9319 10.4911 56.9983C10.5655 56.8987 10.6771 56.7991 10.7887 56.6996C10.7887 56.6664 10.6771 56.7659 10.6027 56.7991C10.6771 56.6664 11.0118 56.4672 10.8631 56.4672C10.6399 56.5668 10.6027 56.6996 10.6027 56.5668C10.9746 56.3676 10.4911 56.5336 10.7143 56.3676C10.6027 56.3676 10.3795 56.5004 10.2679 56.5668C10.5283 56.4008 10.7143 56.2016 10.7887 56.1352L10.6399 56.3676L10.9746 56.1684C10.8259 56.3012 10.9003 56.3012 10.9746 56.3012Z" fill="#3E240C"/>
<path d="M10.4912 56.9651C10.4912 56.9983 10.454 56.9983 10.454 57.0315C10.454 57.0315 10.454 56.9983 10.4912 56.9651Z" fill="#3E240C"/>
<path d="M10.1936 56.6331L10.1192 56.6663L10.0448 56.7327L10.1936 56.6331Z" fill="#3E240C"/>
<path d="M10.3052 57.1643C10.3052 57.1643 10.3796 57.0979 10.4168 57.0979L10.3052 57.2307V57.1643Z" fill="#3E240C"/>
<path d="M10.5656 57.0647L10.7515 56.9651L10.6399 57.0647H10.5656Z" fill="#3E240C"/>
<path d="M11.7185 57.795C11.6069 57.8614 11.7557 57.6954 11.8673 57.5294C11.9788 57.5294 11.7557 57.6954 11.7185 57.795Z" fill="#3E240C"/>
<path d="M12.2766 58.4921C12.1278 58.5917 12.2394 58.3925 12.2022 58.3593C12.3138 58.2597 12.3138 58.3593 12.2766 58.4921Z" fill="#3E240C"/>
<path d="M12.202 59.3552C12.2392 59.2888 12.2392 59.2224 12.2764 59.2224L12.4624 58.824C12.6112 58.7245 12.3136 59.1892 12.202 59.3552Z" fill="#3E240C"/>
<path d="M12.6484 59.6207V59.4548H12.6856C12.76 59.2888 12.76 59.2224 12.7972 59.0896C12.7972 59.156 12.7972 59.322 12.6484 59.6207Z" fill="#3E240C"/>
<path d="M12.7972 58.9568C12.7972 58.9568 12.7972 58.99 12.7972 58.9568C12.76 59.0232 12.7228 59.0896 12.7972 58.9568Z" fill="#3E240C"/>
<path d="M12.8344 59.0232C12.8344 59.0564 12.8344 59.0564 12.8344 59.0564C12.7972 59.0232 12.7972 59.0232 12.8344 59.0232C12.7972 58.9568 12.8344 58.9236 12.8344 59.0232Z" fill="#3E240C"/>
<path d="M12.7971 59.4216L12.9087 59.5211L12.8343 59.5875C12.9087 59.322 12.6855 59.6871 12.7971 59.4216Z" fill="#3E240C"/>
<path d="M13.541 59.4216L13.6526 59.1892C13.727 59.156 13.6898 59.7203 13.8386 59.322C13.7642 59.4548 13.8386 59.6207 13.6898 59.6539C13.727 59.4548 13.6154 59.3884 13.541 59.4216Z" fill="#3E240C"/>
<path d="M13.9503 59.156C13.9503 59.0896 13.9875 59.0232 14.0247 58.9568C14.0619 58.9236 14.0619 59.0564 14.0247 59.156C14.0991 58.824 13.9131 59.3552 13.9503 59.156Z" fill="#3E240C"/>
<path d="M14.3221 59.2556C14.2849 59.2556 14.2849 59.2224 14.3221 59.156C14.3965 59.1892 14.2849 59.4548 14.2849 59.6539C14.1733 59.7867 14.2477 59.3884 14.3221 59.2556Z" fill="#3E240C"/>
<path d="M15.1404 57.463C15.1032 57.6622 15.066 57.629 15.066 57.5626C15.066 57.629 15.1032 57.5626 15.1404 57.463Z" fill="#3E240C"/>
<path d="M14.8801 59.2888L14.8429 59.322L14.8801 58.99V59.2888Z" fill="#3E240C"/>
<path d="M15.252 59.4879L15.2892 59.7203L15.2148 59.6539L15.252 59.4879Z" fill="#3E240C"/>
<path d="M15.3635 59.4548L15.4379 59.488L15.4007 59.5875C15.3635 59.6207 15.3635 59.4548 15.3635 59.4548Z" fill="#3E240C"/>
<path d="M15.5496 59.4879C15.5496 59.4547 15.5496 59.4879 15.5124 59.5543L15.438 59.4216L15.5496 59.4879Z" fill="#3E240C"/>
<path d="M16.4795 58.0937C16.4423 57.8614 16.4795 57.9942 16.4795 57.961C16.4795 57.9942 16.5167 58.2929 16.4795 58.0937Z" fill="#3E240C"/>
</g>
<path d="M5.95341 66.8573C5.95341 66.8573 5.39549 64.2017 6.7345 63.0398" stroke="#1B1C1E" stroke-width="1.2604" stroke-miterlimit="10" stroke-linecap="round" stroke-linejoin="round"/>
<path d="M9.1893 66.8573C9.1893 66.8573 8.66858 65.5627 9.82161 63.3718" stroke="#1B1C1E" stroke-width="1.2604" stroke-miterlimit="10" stroke-linecap="round" stroke-linejoin="round"/>
<path d="M15.3636 57.961C15.3636 57.961 10.8259 58.3261 8.44543 53.6788" stroke="#1B1C1E" stroke-width="1.2604" stroke-miterlimit="10" stroke-linecap="round" stroke-linejoin="round"/>
<path d="M37.3457 66.8573C37.3457 66.8573 38.1639 65.1643 37.792 62.3759C37.42 59.5875 34.6304 48.3675 34.9652 47.8364" stroke="#1B1C1E" stroke-width="1.2604" stroke-miterlimit="10" stroke-linecap="round" stroke-linejoin="round"/>
<path d="M9.04055 47.8364C9.04055 47.8364 8.29665 46.2099 8.07349 44.8157" stroke="#1B1C1E" stroke-width="1.2604" stroke-miterlimit="10" stroke-linecap="round" stroke-linejoin="round"/>
<path d="M12.574 51.5211C12.574 51.5211 11.9789 50.5916 11.7185 49.4962" stroke="#1B1C1E" stroke-width="1.2604" stroke-miterlimit="10" stroke-linecap="round" stroke-linejoin="round"/>
<path d="M21.1288 51.6871C21.1288 51.6871 22.3934 50.3261 22.6166 49.463" stroke="#1B1C1E" stroke-width="1.2604" stroke-miterlimit="10" stroke-linecap="round" stroke-linejoin="round"/>
<path d="M25.183 48.6331C25.183 48.6331 27.3403 46.243 27.675 43.6206" stroke="#1B1C1E" stroke-width="1.2604" stroke-miterlimit="10" stroke-linecap="round" stroke-linejoin="round"/>
<path d="M29.7579 44.2181C29.7579 44.2181 30.6878 42.6579 30.8738 41.0978" stroke="#1B1C1E" stroke-width="1.2604" stroke-miterlimit="10" stroke-linecap="round" stroke-linejoin="round"/>
<path d="M31.6548 66.8573C31.6548 66.8573 30.7621 65.7287 30.9481 63.6706" stroke="#1B1C1E" stroke-width="1.2604" stroke-miterlimit="10" stroke-linecap="round" stroke-linejoin="round"/>
<path d="M34.3329 66.8573C34.3329 66.8573 33.961 65.098 34.3329 63.6706" stroke="#1B1C1E" stroke-width="1.2604" stroke-miterlimit="10" stroke-linecap="round" stroke-linejoin="round"/>
<path d="M39.2426 66.8573C39.2426 66.8573 38.3872 65.1975 39.3914 63.405" stroke="#1B1C1E" stroke-width="1.2604" stroke-miterlimit="10" stroke-linecap="round" stroke-linejoin="round"/>
<path d="M42.0693 66.8573C42.0693 66.8573 41.6974 64.8988 42.9992 63.6706" stroke="#1B1C1E" stroke-width="1.2604" stroke-miterlimit="10" stroke-linecap="round" stroke-linejoin="round"/>
<path d="M15.066 28.8155C15.066 28.8155 18.7483 30.4421 20.6824 28.7823C21.3147 28.2512 21.4263 26.8238 20.1989 25.8279" stroke="#1B1C1E" stroke-width="1.2604" stroke-miterlimit="10" stroke-linecap="round" stroke-linejoin="round"/>
<path d="M14.9172 27.189C14.9172 27.189 14.8056 27.7201 15.066 28.8155C15.1404 29.1143 11.2722 30.3093 9.78437 28.7823C9.26364 28.2512 9.04047 27.189 10.1563 25.9939" stroke="#1B1C1E" stroke-width="1.2604" stroke-miterlimit="10" stroke-linecap="round" stroke-linejoin="round"/>
<path d="M13.5781 29.4462C13.5781 29.4462 14.0988 29.7118 15.1403 29.7782C16.2561 29.8446 16.7025 29.4794 16.7025 29.4794" stroke="#1B1C1E" stroke-width="1.2604" stroke-miterlimit="10" stroke-linecap="round" stroke-linejoin="round"/>
<path d="M36.9365 57.961C36.9365 57.961 38.4615 57.9278 39.3914 56.5004" stroke="#1B1C1E" stroke-width="1.2604" stroke-miterlimit="10" stroke-linecap="round" stroke-linejoin="round"/>
<path d="M47.2393 50.2597C47.0162 48.7327 46.607 47.4713 46.0863 46.3426C45.5656 45.2804 44.9705 44.3509 44.2266 43.4878" stroke="#1B1C1E" stroke-width="1.2604" stroke-miterlimit="10" stroke-linecap="round" stroke-linejoin="round"/>
<g opacity="0.62">
<path d="M37.5688 57.795C37.606 57.8282 37.606 57.8614 37.6432 57.8946C37.6432 57.8946 37.6432 57.8614 37.5688 57.795Z" fill="#3E240C"/>
<path d="M38.7218 56.8323L38.6102 56.7659C38.6474 56.7991 38.6846 56.7991 38.7218 56.8323Z" fill="#3E240C"/>
<path d="M38.1268 58.4921C38.1268 58.5253 38.164 58.5585 38.2012 58.6249L38.1268 58.4921Z" fill="#3E240C"/>
<path d="M38.6847 58.7577C38.7219 58.7577 38.7219 58.7906 38.7591 58.7906C38.7219 58.7577 38.6847 58.7577 38.6847 58.7577Z" fill="#3E240C"/>
<path d="M36.3043 58.2927C36.3043 58.2927 36.3043 58.2597 36.2671 58.2597C36.3043 58.2597 36.3043 58.2597 36.3043 58.2927Z" fill="#3E240C"/>
<path d="M36.3414 58.4921C36.3414 58.4921 36.3042 58.4921 36.3414 58.4921V58.5253C36.3414 58.5585 36.3414 58.5253 36.3414 58.4921Z" fill="#3E240C"/>
<path d="M36.4902 60.2846L36.5274 60.4174C36.5274 60.351 36.5274 60.3178 36.4902 60.2846Z" fill="#3E240C"/>
<path d="M36.2299 58.1269C36.2299 58.1601 36.2671 58.1933 36.2671 58.2265C36.2671 58.1933 36.2671 58.1933 36.2299 58.1269Z" fill="#3E240C"/>
<path d="M37.5317 57.7618C37.5689 57.7948 37.5689 57.7947 37.5689 57.7947L37.5317 57.7618Z" fill="#3E240C"/>
<path d="M38.9823 56.3344C38.9823 56.3012 38.9823 56.3012 38.9451 56.268C38.8707 56.3012 38.9079 56.3012 38.9823 56.3344Z" fill="#3E240C"/>
<path d="M36.7877 58.3261C37.0481 58.6249 36.7506 58.3593 36.9737 58.6581C36.9365 58.5917 36.9365 58.5253 37.0481 58.6581C37.1597 58.8572 36.9737 58.6581 37.1597 58.9236L37.1225 58.7909C37.2341 58.8904 37.3829 59.1228 37.3829 59.0896C37.1225 58.7245 37.606 59.156 37.606 59.0564V59.0896L37.792 59.2224C37.792 59.2224 37.792 59.2224 37.792 59.2556C37.792 59.2224 37.7548 59.2224 37.7548 59.1892C37.9408 59.3552 38.0896 59.4216 38.0896 59.3552C37.9408 59.156 38.2011 59.156 38.0524 58.99C38.0896 59.0564 38.0524 59.0564 37.978 59.0232L37.7548 58.7909C37.792 58.7577 37.9408 58.99 37.8664 58.824C37.5688 58.5253 37.792 58.8572 37.7548 58.8572C37.7176 58.7909 37.6432 58.6913 37.6432 58.6581C37.5688 58.6913 37.42 58.6249 37.6432 58.9568C37.5688 58.8904 37.4572 58.7577 37.4572 58.7245C37.5688 58.9568 37.2713 58.5585 37.3829 58.7577C37.1597 58.4589 37.3457 58.5253 37.2341 58.3593C37.4944 58.5585 37.3829 58.2929 37.3829 58.1933C37.5688 58.3925 37.7176 58.5917 37.8664 58.7245C38.0524 58.8241 37.8292 58.5585 37.7548 58.4257C37.8664 58.4589 38.0896 58.7577 38.2011 58.7245L38.2755 58.8904C38.6103 59.156 38.2011 58.7577 38.2755 58.7909C38.2011 58.7245 38.1268 58.6581 38.0896 58.6913C37.978 58.5917 37.978 58.5253 37.978 58.4921C37.8664 58.3593 37.6804 58.1933 37.792 58.2265C37.9408 58.4257 37.9408 58.3261 38.0524 58.3925L38.0896 58.4257C38.0524 58.3593 38.1268 58.3261 38.0896 58.2929L38.1268 58.3261C38.0896 58.2265 37.8664 58.0274 37.9408 58.0606C38.0152 58.127 38.2383 58.3925 38.2383 58.3261C38.3871 58.4589 38.3499 58.4921 38.2755 58.4921C38.3499 58.4921 38.6103 58.6913 38.5731 58.7245C38.7591 58.8572 38.5359 58.6249 38.6475 58.6581C38.5731 58.6249 38.5359 58.5585 38.4987 58.5253C38.7219 58.7245 38.6103 58.4589 38.4243 58.3261L38.4987 58.4921C38.3127 58.3261 38.2383 58.1933 38.0896 58.0938C38.4243 58.3261 38.0524 57.8946 38.3127 58.0606L38.1268 57.961C38.3127 57.961 37.978 57.629 37.978 57.4962C38.0524 57.5958 38.4243 57.8614 38.2383 57.8282C38.3871 57.795 38.6103 58.0606 38.7963 58.1601C38.9822 58.1933 38.4987 57.8946 38.3871 57.795L38.4243 57.8946C38.0524 57.5626 38.6475 57.795 38.4615 57.5626C38.5731 57.629 38.4987 57.629 38.5359 57.6622C38.7962 57.7618 38.5359 57.5958 38.4615 57.5294C38.5359 57.5294 38.6475 57.5294 38.9078 57.7286C39.0194 57.7286 38.7219 57.629 38.6847 57.5626L38.7591 57.5958L38.4987 57.3635C38.6103 57.3967 38.7963 57.4299 39.0566 57.5626C39.0566 57.4299 38.4615 57.1643 38.3871 57.0315C38.5731 57.0647 38.6103 57.1643 38.6847 57.2307V57.1643C38.9822 57.3635 38.7963 57.3303 39.1682 57.5294C38.8334 57.2639 39.0938 57.3967 38.9078 57.1975H38.8706C38.6475 57.0315 38.8706 57.0647 38.8334 56.9983C38.9822 57.0979 38.9822 57.1311 39.0194 57.1975C39.1682 57.2307 39.131 57.0315 38.7963 56.8323C38.8706 56.8323 39.0194 56.8323 39.1682 56.9651C39.2798 56.8987 38.6847 56.6996 38.8334 56.6664L39.0938 56.7991C39.5029 56.8655 38.8335 56.5004 39.2426 56.5668L38.9078 56.434C39.0566 56.4672 39.131 56.4672 39.2798 56.5004L39.3542 56.6C39.6517 56.6664 39.131 56.4672 39.317 56.5004C39.2054 56.4672 38.9822 56.4008 38.8706 56.3676C38.9822 56.6 38.4243 56.5668 38.6475 56.8655C38.6847 56.8655 38.7219 56.8987 38.7963 56.9319C38.7219 56.8987 38.7591 56.9983 38.6103 56.8987L38.5731 56.8655C38.6103 56.9319 38.2011 56.7659 38.2011 56.7991C38.3871 56.9319 38.0524 56.8323 38.4243 56.9983L38.2011 56.8987C38.3127 56.9651 38.4987 57.0647 38.5731 57.1311C38.5359 57.1311 38.3871 57.0647 38.3127 56.9983C38.0896 57.0315 38.0524 57.1643 38.0896 57.3303L37.9408 57.1975C37.8292 57.1643 38.1639 57.463 37.7548 57.1643C37.8664 57.3303 37.5316 57.1975 37.9408 57.4962C37.5316 57.2307 37.6804 57.4962 37.6804 57.5958C38.0152 57.8614 37.7176 57.7286 37.8664 57.8614C37.606 57.6622 37.6432 57.5958 37.4944 57.463C37.8292 57.8282 37.0481 57.3966 37.6432 57.961C37.606 57.961 37.5688 57.9278 37.5688 57.8946C37.5688 57.8946 37.4201 57.8282 37.3829 57.8282C37.4944 57.9278 37.5688 57.961 37.5688 58.0274C37.5316 58.0274 37.3829 57.8614 37.2713 57.795C37.3829 57.961 37.3457 58.0938 37.5688 58.3261C37.4944 58.2597 37.3457 58.1601 37.3085 58.0938C37.4201 58.3261 37.1969 58.1269 37.2341 58.2929C37.2713 58.2597 37.0109 58.0274 37.1597 58.0938C36.7877 57.7618 37.0853 58.2597 36.8621 58.1269L37.0481 58.3593C37.0481 58.4257 36.8621 58.2265 36.8249 58.1269C36.639 58.0274 36.7133 58.1933 36.6762 58.2265C36.639 58.1933 36.6018 58.1601 36.639 58.1601L36.5646 58.1933C36.6018 58.2597 36.6762 58.3925 36.7877 58.5253C36.7134 58.3593 36.6762 58.2597 36.7877 58.3261Z" fill="#3E240C"/>
<path d="M38.4616 58.9236C38.3872 58.8904 38.35 58.8573 38.35 58.8573C38.3872 58.8573 38.4244 58.8904 38.4616 58.9236Z" fill="#3E240C"/>
<path d="M36.267 59.3884C36.4902 59.7867 36.3042 59.2888 36.3786 59.3884C36.3786 59.4548 36.4902 59.6871 36.5646 59.7867C36.3414 59.2556 36.6762 59.8531 36.7134 59.7203C36.825 59.8863 36.7878 59.9195 36.8621 60.1187C36.8621 59.9527 36.8993 59.8531 36.7506 59.5875C36.825 59.5543 36.9737 59.5875 36.9737 59.5211C36.9737 59.6539 37.1225 59.7867 37.2341 60.0523C37.1225 59.6871 37.0109 59.2556 36.825 58.824C37.0481 59.1228 37.0853 59.1228 37.2341 59.4216C37.4945 59.5543 37.0853 59.1228 37.2341 59.156L37.1597 59.1228C37.1225 59.0232 36.9365 58.7245 36.7878 58.5253L36.7134 58.6249C36.5646 58.4257 36.639 58.4257 36.639 58.3593C36.4902 58.0937 36.453 58.2265 36.3414 58.0274C36.453 58.1933 36.3786 58.1601 36.4158 58.2597L36.3414 58.1601C36.2298 58.0605 36.3786 58.3593 36.3414 58.3593C36.3042 58.3261 36.3042 58.2929 36.3042 58.2929C36.3786 58.4257 36.453 58.5917 36.453 58.6249V58.5917C36.6018 58.8572 36.6018 59.0896 36.8621 59.3552L36.6762 59.322C36.5274 59.0232 36.267 58.5585 36.3042 58.4921L36.2298 58.3593C36.0811 58.2265 36.267 58.6581 36.4158 58.8904C36.7878 59.6207 36.267 58.99 36.3414 59.322C36.2298 59.1228 36.2298 59.0232 36.1926 58.8904C36.1926 58.8572 36.2298 58.8572 36.3042 59.0232C36.3414 58.8572 35.9323 58.4257 36.0811 58.4257C36.1927 58.4921 36.1926 58.7577 36.3042 58.7577L36.0439 58.1933C36.0067 58.2265 36.0067 58.3261 36.0067 58.4257C36.0067 58.6581 35.8951 58.6913 35.8207 58.6913C35.7463 58.6913 35.6719 58.6249 35.6719 58.6249C35.3744 58.7908 35.0768 58.9568 34.7421 59.0896C34.6677 59.1892 34.6305 59.156 34.6677 59.7535C34.7049 59.8863 34.7793 59.8199 34.7793 60.0191C34.7421 59.7867 34.7793 59.6871 34.8536 59.6871C34.8908 59.8863 34.8164 59.7867 34.8536 59.8531C34.8536 59.9527 34.8908 60.0523 34.8536 60.0523C35.0024 60.351 35.1512 60.2514 35.0768 59.8531C35.1884 60.0523 35.114 60.1851 35.114 60.3842C35.4116 60.4838 35.5603 60.4174 35.7835 60.3842C35.6347 60.0191 35.7091 60.1519 35.6719 59.8863L35.7463 60.0191C35.7091 59.9527 35.6347 59.6871 35.5603 59.6207C35.7835 59.8531 35.5232 59.0896 35.5232 58.9236L35.5975 59.1228C35.6347 59.0564 35.6719 59.0564 35.6719 58.9568C35.9323 59.2556 35.5975 59.0564 35.8579 59.4879V59.3884C35.9323 59.5543 36.0439 59.8863 36.0439 60.0191C36.0067 59.6871 36.267 60.0855 36.267 59.8199C36.3414 60.0191 36.3042 60.2182 36.3042 60.2514C36.3414 60.2514 36.3786 60.0855 36.453 60.2846L36.3414 60.0191C36.3786 59.9527 36.453 60.2514 36.5646 60.4174C36.7506 60.2846 36.1927 59.5875 36.267 59.3884Z" fill="#3E240C"/>
<path d="M37.7921 58.6913C37.7549 58.6913 37.7549 58.6913 37.7549 58.7242C37.7549 58.7242 37.7921 58.7242 37.7921 58.6913Z" fill="#3E240C"/>
<path d="M37.8665 59.2888C37.9036 59.322 37.9037 59.3552 37.9408 59.3884C37.9408 59.3552 37.9036 59.322 37.8665 59.2888Z" fill="#3E240C"/>
<path d="M38.1268 59.6207C38.0524 59.5211 38.0524 59.5211 37.9408 59.3884C37.978 59.4879 37.9408 59.5211 38.1268 59.6207Z" fill="#3E240C"/>
<path d="M41.0652 54.907C40.9908 54.8738 40.8792 54.8406 40.8048 54.8406L40.8792 54.907H41.0652Z" fill="#3E240C"/>
<path d="M40.6932 54.9734L40.5444 55.0066L40.9536 55.1062C40.9908 55.0398 40.6932 55.0398 40.6932 54.9734Z" fill="#3E240C"/>
<path d="M40.4327 55.0727L40.3212 55.0398C40.3584 55.0727 40.3956 55.0727 40.4327 55.0727Z" fill="#3E240C"/>
<path d="M40.6187 55.1394L40.9163 55.2058L40.7303 55.073L40.6187 55.1394C40.5443 55.1062 40.5071 55.1062 40.4327 55.1062L40.6559 55.1726C40.6187 55.1394 40.5815 55.1062 40.6187 55.1394Z" fill="#3E240C"/>
<path d="M40.0238 55.2389C40.1354 55.2389 40.2842 55.3053 40.4329 55.3385C40.5817 55.3053 40.1354 55.2058 40.2842 55.2058C40.5073 55.3385 40.4701 55.2058 40.6561 55.2058C40.3586 55.1726 40.1726 55.1726 40.061 55.2058L40.247 55.2389C40.2098 55.2721 40.0982 55.2058 40.0238 55.2389Z" fill="#3E240C"/>
<path d="M40.3957 55.6373L40.1353 55.5377C40.2841 55.5709 40.2841 55.5045 40.5817 55.5709C40.5445 55.5377 40.4329 55.5045 40.3585 55.4713C40.5073 55.4713 40.6189 55.5045 40.4329 55.4381C40.2097 55.5045 40.1353 55.4713 40.0237 55.5377C39.9494 55.5377 39.9866 55.5045 39.9866 55.5045L39.8378 55.5377C40.1725 55.5377 40.1725 55.6373 40.3957 55.6373Z" fill="#3E240C"/>
<path d="M40.1353 55.6705C40.1353 55.6041 39.8749 55.5377 39.689 55.5045L39.8749 55.6705C39.9121 55.6373 39.8749 55.5709 40.1353 55.6705Z" fill="#3E240C"/>
<path d="M40.1354 55.7369C39.9866 55.7037 39.6518 55.6705 39.9494 55.7701C39.875 55.7037 40.2841 55.8365 40.1354 55.7369Z" fill="#3E240C"/>
<path d="M39.7262 56.0025L39.9494 55.9693C40.3214 56.0688 40.061 56.0356 40.2098 56.1352C40.3214 56.0688 40.1726 56.0688 39.9866 55.9361C40.0238 55.9029 39.8378 55.8365 39.7634 55.7701C39.9866 55.9693 39.0939 55.7037 39.7262 56.0025Z" fill="#3E240C"/>
<path d="M40.1726 55.9361L40.0238 55.8697L40.1354 55.9692L40.1726 55.9361Z" fill="#3E240C"/>
<path d="M39.2426 56.102C38.7962 56.0025 39.4286 56.3012 39.2426 56.268C39.2054 56.268 39.1682 56.2348 39.131 56.2016V56.268L39.0194 56.2348C39.2798 56.3344 39.3542 56.4008 39.5029 56.5004C39.8005 56.5336 39.2054 56.3676 39.5029 56.434C39.6145 56.5004 39.7633 56.5668 39.8749 56.6C39.7633 56.5336 39.6145 56.4672 39.5029 56.4008C39.5029 56.3676 39.6145 56.434 39.7261 56.4672C39.6145 56.3676 39.2426 56.2348 39.3542 56.2016C39.5773 56.2348 39.6889 56.3344 39.6145 56.2348C39.2054 56.1352 39.6889 56.2016 39.4657 56.0688C39.5773 56.0356 39.8377 56.102 39.9493 56.1352C39.6517 56.0356 39.3914 55.9029 39.317 55.8365L39.5401 56.0024L39.1682 55.9029C39.3914 56.0688 39.3542 56.0688 39.2426 56.102Z" fill="#3E240C"/>
<path d="M39.9493 56.6C39.9865 56.6 39.9865 56.6332 39.9865 56.6332C40.0237 56.6664 39.9865 56.6332 39.9493 56.6Z" fill="#3E240C"/>
<path d="M40.1353 56.2016L40.1725 56.2348L40.284 56.268L40.1353 56.2016Z" fill="#3E240C"/>
<path d="M40.1725 56.7659C40.1725 56.7659 40.0609 56.6996 40.0609 56.7328L40.2097 56.7991L40.1725 56.7659Z" fill="#3E240C"/>
<path d="M39.9121 56.7327L39.689 56.6664L39.8377 56.7327H39.9121Z" fill="#3E240C"/>
<path d="M39.0567 57.7286C39.2055 57.7618 38.9823 57.629 38.8336 57.5294C38.722 57.5294 38.9823 57.629 39.0567 57.7286Z" fill="#3E240C"/>
<path d="M38.7219 58.5253C38.8707 58.5917 38.7219 58.3925 38.7591 58.3925C38.6475 58.3261 38.6847 58.4257 38.7219 58.5253Z" fill="#3E240C"/>
<path d="M39.0938 59.3552C39.0566 59.2888 39.0194 59.2556 38.9822 59.2556L38.6846 58.9236C38.5359 58.8572 38.945 59.2224 39.0938 59.3552Z" fill="#3E240C"/>
<path d="M38.7591 59.6871L38.6847 59.5212H38.6475C38.5359 59.3884 38.4987 59.322 38.4243 59.1892C38.4615 59.322 38.5359 59.488 38.7591 59.6871Z" fill="#3E240C"/>
<path d="M38.4243 59.1228V59.156C38.4615 59.1892 38.4987 59.2224 38.4243 59.1228Z" fill="#3E240C"/>
<path d="M38.3871 59.1892C38.3871 59.1892 38.3871 59.2224 38.4243 59.2224C38.4243 59.1892 38.4243 59.1892 38.3871 59.1892C38.3871 59.1228 38.3499 59.1228 38.3871 59.1892Z" fill="#3E240C"/>
<path d="M38.573 59.5876L38.4987 59.6871L38.6102 59.7203C38.4243 59.5212 38.759 59.8199 38.573 59.5876Z" fill="#3E240C"/>
<path d="M37.8665 59.7867L37.6805 59.5876C37.5689 59.5876 37.8293 60.0855 37.5317 59.7867C37.6433 59.8863 37.6433 60.0523 37.7921 60.0855C37.6805 59.8531 37.7549 59.7535 37.8665 59.7867Z" fill="#3E240C"/>
<path d="M37.3829 59.6207C37.3457 59.5543 37.3085 59.5211 37.2341 59.4548C37.1969 59.4548 37.2341 59.5543 37.3085 59.6539C37.1225 59.3552 37.4573 59.8199 37.3829 59.6207Z" fill="#3E240C"/>
<path d="M37.0481 59.8199C37.0481 59.8199 37.0853 59.7535 37.0109 59.7203C36.9737 59.7535 37.1225 60.0191 37.1968 60.185C37.3456 60.2846 37.1596 59.9195 37.0481 59.8199Z" fill="#3E240C"/>
<path d="M35.672 58.3261C35.7836 58.5253 35.8208 58.4921 35.7836 58.3925C35.7836 58.4589 35.7464 58.3925 35.672 58.3261Z" fill="#3E240C"/>
<path d="M36.5274 59.9859L36.5646 60.0191L36.453 59.6871L36.5274 59.9859Z" fill="#3E240C"/>
<path d="M36.2299 60.2846L36.2671 60.517L36.3414 60.4506L36.2299 60.2846Z" fill="#3E240C"/>
<path d="M36.1182 60.2514L36.0438 60.2846L36.1182 60.351C36.1926 60.4174 36.1182 60.2846 36.1182 60.2514Z" fill="#3E240C"/>
<path d="M35.9323 60.3842C35.9323 60.351 35.9694 60.3842 35.9694 60.4174V60.2514L35.9323 60.3842Z" fill="#3E240C"/>
<path d="M34.5932 59.2556C34.556 59.0232 34.556 59.1892 34.556 59.1228C34.556 59.1892 34.6304 59.488 34.5932 59.2556Z" fill="#3E240C"/>
</g>
</svg>
